<?xml version="1.0" encoding="utf-8"?>
<!-- Generator: Adobe Illustrator 27.5.0, SVG Export Plug-In . SVG Version: 6.00 Build 0)  -->
<svg version="1.1" xmlns="http://www.w3.org/2000/svg" xmlns:xlink="http://www.w3.org/1999/xlink" x="0px" y="0px"
	 viewBox="0 0 3710 3710" style="enable-background:new 0 0 3710 3710;" xml:space="preserve">
<g id="Background">
	<g>
		<g>
			<rect style="fill:#FFFFFF;" width="3710" height="3710"/>
		</g>
	</g>
</g>
<g id="Illustration">
	<g>
		<linearGradient id="SVGID_1_" gradientUnits="userSpaceOnUse" x1="3546.3342" y1="3935.0928" x2="1156.2089" y2="966.707">
			<stop  offset="0" style="stop-color:#DAE3FE"/>
			<stop  offset="1" style="stop-color:#E9EFFD"/>
		</linearGradient>
		<path style="fill:url(#SVGID_1_);" d="M2888.796,2764.469c-54.9,57.797-106.846,95.069-147.888,124.517
			c-482.436,346.153-1053.285,245.251-1174.607,220.61c-179.154-36.387-525.455-106.723-775.824-401.152
			c-378.788-445.447-319.805-1147.236-25.991-1610.496c53.743-84.738,337.63-555.055,914.628-630.479
			c349.193-45.646,756.24,46.416,1051.012,293.377C3348.878,1279.238,3304.829,2326.482,2888.796,2764.469z"/>
		<g>
			<path style="fill:#91B3FA;" d="M3114.165,866.217h-273.811c-20.941,0-37.916-16.976-37.916-37.917V553.755
				c0-19.754,15.167-36.199,34.858-37.793l291.729-23.612c22.981-1.86,42.29,17.052,40.906,40.068l-17.917,298.157
				C3150.81,850.596,3134.223,866.217,3114.165,866.217z"/>
			<path style="fill:#FFFFFF;" d="M2879.388,812.779c-7.353,0-14.52-2.822-19.897-7.888c-5.794-5.456-9.117-13.15-9.117-21.108
				V607.763c0-4.964,4.025-8.99,8.989-8.99c4.964,0,8.99,4.025,8.99,8.99v176.021c0,3.068,1.229,5.917,3.464,8.019
				c2.229,2.102,5.152,3.143,8.207,2.98l208.594-12.417c5.811-0.351,10.368-5.184,10.368-11.004V598.541
				c0-3.151-1.287-6.049-3.622-8.164c-2.335-2.12-5.359-3.129-8.489-2.801l-173.515,17.185c-5.732,0.566-8.177,4.701-8.968,6.448
				c-0.785,1.751-2.251,6.325,1.128,10.986l66.178,91.333c2.076,2.866,5.298,4.526,8.835,4.556c0.031,0,0.066,0,0.097,0
				c3.498,0,6.707-1.602,8.81-4.407l72.898-97.122c2.976-3.964,8.612-4.78,12.584-1.796c3.972,2.98,4.775,8.617,1.795,12.584
				l-72.897,97.127c-5.592,7.444-13.958,11.799-23.435,11.592c-9.31-0.079-17.781-4.447-23.242-11.983l-66.178-91.333
				c-6.171-8.511-7.282-19.318-2.971-28.908c4.311-9.591,13.133-15.934,23.593-16.969l173.514-17.184
				c8.147-0.79,16.276,1.879,22.333,7.365c6.057,5.487,9.53,13.317,9.53,21.49v172.821c0,15.318-11.979,28.034-27.276,28.947
				l-208.589,12.417C2880.528,812.762,2879.954,812.779,2879.388,812.779z"/>
		</g>
		<g>
			<path style="fill:#91B3FA;" d="M2553.831,1386.072v220.719c0,26.224,20.606,47.821,46.801,49.051l276.014,12.969
				c27.995,1.315,51.411-21.028,51.411-49.053v-233.686c0-27.121-21.986-49.106-49.106-49.106h-276.014
				C2575.817,1336.966,2553.831,1358.951,2553.831,1386.072z"/>
			<path style="opacity:0.73;fill:#FFFFFF;" d="M2653.821,1614.671c-3.567,0-6.581-0.043-8.969-0.091
				c-4.076-0.082-7.42-3.083-7.94-7.135c-0.522-4.08,1.973-7.848,5.934-8.966l0.012-0.005c21.196-5.941,44.297-16.034,61.316-24.208
				c-81.163-6.616-97.367-48.301-100.498-67.37c-7.902-48.086,33.833-102.496,93.031-121.29
				c60.41-19.165,121.602-12.26,155.917,17.601c18.234,15.87,38.011,46.259,28.686,100.946
				C2863.868,1606.472,2704.304,1614.671,2653.821,1614.671z M2646.845,1612.652h0.005H2646.845z M2645.157,1599.85h0.019H2645.157z
				 M2762.423,1559.839l-25.714,14.336c-1.354,0.752-23.987,13.305-51.513,24.817c62.661-3.778,168.671-21.48,181.597-97.313
				c6.56-38.492-1.458-67.887-23.834-87.358c-34.713-30.216-96.221-29.133-141.795-14.676
				c-51.611,16.388-89.6,64.406-82.954,104.864c6.034,36.727,47.857,57.272,114.779,55.868L2762.423,1559.839z"/>
		</g>
		<g>
			<g>
				<path style="fill:#91B3FA;" d="M2399.523,1163.451h-313.367c-23.966,0-43.394-19.428-43.394-43.394V805.849
					c0-22.608,17.359-41.428,39.894-43.252l333.873-27.023c26.301-2.128,48.399,19.515,46.816,45.856l-20.506,341.229
					C2441.462,1145.574,2422.478,1163.451,2399.523,1163.451z"/>
			</g>
			<g>
				<g>
					<g>
						<g>
							<path style="fill:#FFFFFF;" d="M2291.325,963.323c-0.038,25.696-1.793,51.443-6.304,76.774
								c-1.143,6.329-2.466,12.625-4.044,18.864c-1.581,6.234-3.408,12.415-5.645,18.458c-2.256,6.028-4.873,11.968-8.423,17.398
								c-1.789,2.695-3.818,5.278-6.322,7.401c-1.252,1.056-2.626,1.991-4.137,2.677c-1.508,0.681-3.157,1.112-4.831,1.143
								c-1.671,0.048-3.345-0.28-4.883-0.902c-1.545-0.616-2.953-1.51-4.234-2.531c-2.564-2.058-4.638-4.612-6.458-7.285
								c-3.613-5.391-6.266-11.32-8.545-17.338c-2.265-6.033-4.109-12.209-5.706-18.441c-1.593-6.233-2.93-12.527-4.082-18.853
								c-2.298-12.655-3.865-25.43-4.922-38.241c-1.051-12.813-1.577-25.667-1.641-38.523c-0.031-6.427,0.143-12.853,0.371-19.275
								c0.24-6.422,0.592-12.839,1.063-19.249c0.947-12.816,2.361-25.605,4.463-38.288c1.056-6.34,2.286-12.653,3.765-18.91
								c1.484-6.255,3.207-12.461,5.346-18.532c1.074-3.032,2.249-6.032,3.589-8.962c1.339-2.93,2.837-5.795,4.595-8.503
								c1.764-2.698,3.792-5.271,6.318-7.332c1.262-1.021,2.652-1.911,4.177-2.512c1.518-0.611,3.164-0.919,4.802-0.856
								c1.639,0.047,3.255,0.457,4.745,1.116c1.493,0.662,2.865,1.563,4.125,2.584c2.519,2.054,4.604,4.568,6.453,7.205
								c3.677,5.313,6.449,11.173,8.85,17.135c2.384,5.978,4.352,12.111,6.067,18.308c1.707,6.2,3.154,12.469,4.406,18.774
								C2289.239,911.873,2291.251,937.623,2291.325,963.323z M2289.43,963.323c0.024-12.803-0.46-25.61-1.521-38.37
								c-1.045-12.758-2.628-25.479-4.987-38.061c-1.178-6.289-2.55-12.543-4.181-18.728c-1.638-6.18-3.528-12.299-5.83-18.26
								c-2.318-5.943-5.007-11.782-8.574-17.058c-1.792-2.62-3.815-5.107-6.243-7.13c-1.213-1.006-2.53-1.89-3.955-2.541
								c-1.425-0.643-2.957-1.065-4.518-1.106c-1.558-0.05-3.115,0.265-4.557,0.861c-1.448,0.59-2.775,1.458-3.986,2.459
								c-2.423,2.021-4.386,4.563-6.092,7.236c-1.703,2.684-3.152,5.532-4.446,8.446c-1.294,2.915-2.428,5.903-3.462,8.925
								c-2.057,6.05-3.706,12.239-5.113,18.478c-1.404,6.242-2.562,12.54-3.542,18.865c-1.956,12.653-3.228,25.409-4.032,38.189
								c-0.812,12.781-1.093,25.592-1.071,38.397c-0.033,12.802,0.393,25.608,1.341,38.376c0.956,12.766,2.419,25.5,4.609,38.109
								c1.097,6.303,2.379,12.574,3.915,18.781c1.539,6.204,3.323,12.35,5.521,18.342c2.209,5.975,4.791,11.854,8.282,17.15
								c1.757,2.625,3.757,5.115,6.179,7.09c1.21,0.979,2.529,1.827,3.953,2.406c1.419,0.582,2.943,0.905,4.47,0.853
								c1.526-0.038,3.03-0.443,4.425-1.086c1.399-0.647,2.688-1.538,3.872-2.552c2.371-2.043,4.327-4.565,6.054-7.212
								c3.43-5.338,5.976-11.23,8.16-17.215c2.168-6.003,3.932-12.153,5.456-18.361c1.518-6.21,2.786-12.484,3.872-18.789
								c2.175-12.611,3.62-25.346,4.581-38.112C2288.986,988.937,2289.435,976.13,2289.43,963.323z"/>
						</g>
						<g>
							<path style="fill:#FFFFFF;" d="M2251.254,1109.791c-1.951,0-3.998-0.406-5.91-1.178c-1.757-0.702-3.449-1.708-5.16-3.071
								c-2.563-2.055-4.852-4.63-7.22-8.108c-3.285-4.903-6.125-10.652-8.951-18.119c-2.134-5.686-4.041-11.847-5.831-18.84
								c-1.538-6.011-2.891-12.265-4.141-19.113c-2.201-12.133-3.826-24.757-4.969-38.605c-1.033-12.583-1.588-25.641-1.654-38.813
								c-0.034-6.882,0.168-13.68,0.372-19.424c0.246-6.531,0.605-13.054,1.073-19.392c1.027-13.922,2.5-26.555,4.503-38.626
								c1.145-6.879,2.393-13.146,3.815-19.166c1.667-7.031,3.452-13.219,5.458-18.909c1.216-3.436,2.431-6.472,3.717-9.277
								c1.561-3.415,3.15-6.355,4.859-8.989c2.312-3.528,4.561-6.128,7.091-8.19c1.688-1.368,3.419-2.403,5.16-3.09
								c2.005-0.809,4.191-1.19,6.313-1.117c2.024,0.059,4.09,0.538,6.106,1.43c1.694,0.749,3.317,1.762,4.965,3.097
								c2.519,2.055,4.79,4.581,7.161,7.965c3.354,4.845,6.292,10.523,9.257,17.885c2.261,5.668,4.288,11.786,6.202,18.711
								c1.663,6.03,3.123,12.258,4.47,19.045c4.704,23.977,7.03,49.296,7.112,77.412v0.015c-0.041,28.292-2.123,53.62-6.363,77.429
								c-1.235,6.845-2.575,13.098-4.1,19.129c-1.769,6.984-3.654,13.146-5.763,18.843c-2.803,7.484-5.598,13.248-8.802,18.148
								c-2.323,3.505-4.553,6.104-7.03,8.206c-1.662,1.398-3.296,2.451-5.007,3.23c-2.095,0.943-4.21,1.437-6.306,1.473
								C2251.541,1109.787,2251.398,1109.791,2251.254,1109.791z M2249.311,825.811c-0.938,0-1.903,0.198-2.827,0.582
								c-0.994,0.406-2.01,1.039-3.03,1.887c-1.837,1.528-3.531,3.553-5.328,6.365c-1.46,2.305-2.828,4.909-4.177,7.951
								c-1.151,2.589-2.245,5.408-3.343,8.619c-1.841,5.413-3.478,11.333-5.002,18.087c-1.315,5.847-2.458,11.936-3.494,18.617
								c-1.833,11.84-3.138,24.222-3.994,37.844c-0.742,11.646-1.09,24.126-1.065,38.154c-0.034,12.948,0.415,25.762,1.33,38.107
								c1.015,13.548,2.506,25.896,4.564,37.745c1.155,6.625,2.417,12.685,3.861,18.521c1.663,6.703,3.43,12.573,5.4,17.948
								c2.53,6.841,5.038,12.048,7.893,16.378c1.838,2.747,3.565,4.739,5.419,6.249c1.024,0.83,2.035,1.452,3,1.844
								c1.029,0.42,1.993,0.57,2.948,0.585c0.971-0.026,1.969-0.278,2.992-0.75c0.978-0.453,1.991-1.127,3.006-1.997
								c1.825-1.573,3.526-3.61,5.354-6.414c2.798-4.352,5.275-9.585,7.781-16.452c1.947-5.393,3.693-11.277,5.334-17.973
								c1.421-5.803,2.671-11.866,3.819-18.532c2.025-11.742,3.51-24.091,4.537-37.752c0.94-12.317,1.413-25.133,1.407-38.1v-0.007
								c0.024-12.916-0.482-25.718-1.508-38.053c-1.112-13.573-2.726-25.898-4.936-37.679c-1.228-6.563-2.575-12.601-4.122-18.463
								c-1.759-6.641-3.624-12.484-5.7-17.863c-2.641-6.772-5.242-11.961-8.182-16.309c-1.89-2.757-3.653-4.779-5.541-6.352
								c-1.051-0.87-2.102-1.551-3.118-2.014c-1.069-0.484-2.105-0.745-3.069-0.768
								C2249.453,825.811,2249.382,825.811,2249.311,825.811z"/>
						</g>
					</g>
					<g>
						<g>
							<path style="fill:#FFFFFF;" d="M2355.896,963.323c-0.089,16.548-2.208,33.102-6.619,49.059
								c-4.491,15.92-11.258,31.236-20.447,44.987c-4.594,6.867-9.801,13.332-15.616,19.198
								c-5.814,5.863-12.244,11.125-19.223,15.535c-6.987,4.393-14.532,7.909-22.43,10.295c-7.895,2.392-16.134,3.639-24.383,3.647
								c-8.248-0.001-16.49-1.24-24.389-3.626c-7.902-2.379-15.454-5.89-22.447-10.279c-6.986-4.405-13.426-9.662-19.249-15.523
								c-5.826-5.863-11.042-12.326-15.647-19.194c-9.207-13.753-15.989-29.075-20.499-45.004c-2.22-7.979-3.87-16.116-4.964-24.324
								c-1.087-8.21-1.634-16.489-1.67-24.772c0.042-8.283,0.594-16.562,1.685-24.77c1.099-8.207,2.755-16.341,4.981-24.317
								c4.521-15.923,11.314-31.236,20.526-44.974c4.607-6.861,9.824-13.318,15.649-19.172c5.823-5.853,12.258-11.105,19.244-15.497
								c6.99-4.377,14.54-7.861,22.43-10.24c7.883-2.388,16.113-3.634,24.35-3.642c8.238,0.016,16.465,1.268,24.345,3.662
								c7.884,2.384,15.428,5.876,22.412,10.258c6.978,4.396,13.403,9.653,19.217,15.508c5.815,5.856,11.022,12.315,15.618,19.176
								c9.195,13.736,15.973,29.042,20.474,44.956C2353.666,930.225,2355.797,946.776,2355.896,963.323z M2353.724,963.323
								c-0.024-16.36-2.053-32.737-6.354-48.528c-4.323-15.768-10.833-30.989-19.795-44.679
								c-4.479-6.838-9.566-13.282-15.264-19.141c-5.699-5.849-11.995-11.142-18.881-15.54c-6.893-4.374-14.337-7.895-22.143-10.276
								c-7.803-2.383-15.948-3.635-24.109-3.663c-8.16,0.034-16.304,1.294-24.102,3.684c-7.802,2.387-15.24,5.915-22.126,10.293
								c-6.878,4.404-13.164,9.7-18.854,15.552c-5.687,5.862-10.764,12.308-15.232,19.146
								c-8.944,13.687-15.441,28.904-19.743,44.663c-2.143,7.888-3.696,15.933-4.747,24.037c-1.054,8.105-1.573,16.279-1.592,24.454
								c0.024,8.176,0.549,16.348,1.609,24.452c1.056,8.103,2.614,16.144,4.763,24.03c4.313,15.754,10.82,30.959,19.77,44.633
								c4.47,6.83,9.547,13.27,15.235,19.124c5.69,5.842,11.971,11.134,18.849,15.524c6.883,4.367,14.319,7.869,22.108,10.255
								c7.783,2.393,15.914,3.657,24.063,3.7c8.15-0.034,16.283-1.292,24.07-3.679c7.792-2.38,15.235-5.876,22.126-10.239
								c6.884-4.386,13.175-9.672,18.875-15.512c5.697-5.851,10.784-12.289,15.264-19.12c8.968-13.676,15.49-28.888,19.823-44.649
								C2351.648,996.057,2353.69,979.683,2353.724,963.323z"/>
						</g>
						<g>
							<path style="fill:#FFFFFF;" d="M2247.184,1109.791c-8.579,0-17.147-1.273-25.467-3.785
								c-8.049-2.421-15.906-6.018-23.351-10.693c-7.038-4.435-13.737-9.833-19.912-16.053
								c-5.825-5.862-11.243-12.507-16.101-19.747c-9.141-13.654-16.203-29.156-20.993-46.071
								c-2.245-8.071-3.95-16.426-5.072-24.852c-1.094-8.247-1.666-16.741-1.705-25.25c0.045-8.557,0.623-17.051,1.719-25.286
								c1.127-8.428,2.839-16.781,5.085-24.829c4.806-16.923,11.879-32.413,21.026-46.053c4.848-7.226,10.267-13.862,16.104-19.728
								c6.187-6.22,12.883-11.61,19.904-16.024c7.397-4.634,15.248-8.214,23.337-10.653c8.298-2.512,16.851-3.792,25.418-3.799
								c8.585,0.015,17.137,1.301,25.43,3.822c8.074,2.443,15.917,6.029,23.307,10.666c7.017,4.424,13.705,9.818,19.881,16.038
								c5.827,5.87,11.235,12.507,16.072,19.732c9.135,13.647,16.19,29.13,20.967,46.023c4.406,15.886,6.689,32.717,6.795,50.051
								v0.044c-0.092,17.329-2.366,34.165-6.757,50.039c-4.768,16.915-11.813,32.41-20.941,46.071
								c-4.843,7.242-10.25,13.889-16.071,19.755c-6.167,6.22-12.857,11.625-19.88,16.064c-7.441,4.676-15.292,8.279-23.341,10.71
								C2264.333,1108.497,2255.77,1109.78,2247.184,1109.791z M2247.168,825.241c-7.732,0.033-15.479,1.214-23.002,3.518
								c-7.27,2.227-14.41,5.551-21.219,9.877c-6.307,4.037-12.428,9.087-18.181,15.004c-5.36,5.521-10.333,11.778-14.784,18.587
								c-8.39,12.839-14.869,27.507-19.263,43.596c-2.02,7.438-3.584,15.358-4.646,23.531c-1.018,7.833-1.543,15.899-1.561,23.977
								c0.025,8.074,0.555,16.141,1.578,23.959c1.063,8.158,2.632,16.075,4.661,23.527c4.404,16.079,10.896,30.735,19.292,43.564
								c4.447,6.801,9.421,13.047,14.787,18.565c5.759,5.912,11.875,10.955,18.179,14.982c6.759,4.285,13.893,7.594,21.194,9.833
								c7.508,2.307,15.243,3.499,22.995,3.537c7.72-0.033,15.457-1.215,22.963-3.515c7.316-2.238,14.458-5.543,21.226-9.825
								c6.3-4.012,12.425-9.051,18.199-14.967c5.368-5.515,10.355-11.76,14.816-18.558c8.407-12.823,14.915-27.488,19.343-43.584
								c4.112-15.063,6.216-31.054,6.25-47.527c-0.025-16.466-2.118-32.461-6.221-47.538c-4.413-16.097-10.913-30.772-19.315-43.61
								c-4.457-6.802-9.442-13.055-14.815-18.58c-5.751-5.902-11.88-10.948-18.216-14.996c-6.801-4.316-13.946-7.631-21.224-9.852
								C2262.676,826.443,2254.927,825.266,2247.168,825.241z"/>
						</g>
					</g>
					<g>
						<g>
							<path style="fill:#FFFFFF;" d="M2120.314,906.847l32.65-0.265l32.649-0.149l65.298-0.121l65.299,0.133l32.649,0.164
								l32.649,0.286c0.054,0,0.095,0.044,0.095,0.097c0,0-0.043,0.095-0.095,0.096l-32.649,0.285l-32.649,0.163l-65.299,0.134
								l-65.298-0.121l-32.649-0.15l-32.65-0.265c-0.078-0.001-0.141-0.066-0.141-0.066
								C2120.173,906.912,2120.237,906.849,2120.314,906.847z"/>
						</g>
						<g>
							<polygon style="fill:#FFFFFF;" points="2250.92,911.416 2152.947,911.145 2118.732,910.862 2116.447,908.578 
								2116.445,906.904 2116.531,903.246 2120.285,903.103 2185.593,902.687 2250.905,902.567 2348.878,902.866 2385.239,903.185 
								2385.334,910.735 2381.509,910.831 2316.229,911.28 							"/>
						</g>
					</g>
					<g>
						<g>
							<path style="fill:#FFFFFF;" d="M2158.191,851.952c7.726-0.123,15.453-0.176,23.179-0.266l23.18-0.149
								c7.727-0.064,15.454-0.057,23.181-0.077l23.179-0.044l46.361,0.133l23.18,0.164c7.727,0.098,15.453,0.155,23.18,0.287
								c0.053,0.001,0.094,0.044,0.094,0.044c0,0.105-0.042,0.147-0.094,0.148c-7.727,0.132-15.453,0.188-23.18,0.287l-23.18,0.164
								l-46.361,0.133l-23.179-0.044c-7.727-0.019-15.454-0.012-23.181-0.077l-23.18-0.15c-7.726-0.089-15.453-0.142-23.179-0.265
								c-0.079-0.001-0.142-0.066-0.141-0.145C2158.052,852.015,2158.115,851.953,2158.191,851.952z"/>
						</g>
						<g>
							<path style="fill:#FFFFFF;" d="M2250.923,856.52l-29.206-0.058c-5.732-0.007-11.464-0.017-17.196-0.065l-30.91-0.231
								c-5.16-0.052-10.319-0.098-15.479-0.183l-3.671-0.058l-0.142-7.578l3.813-0.139c4.992-0.081,9.986-0.128,14.979-0.18
								l31.416-0.237c5.438-0.044,10.884-0.055,16.328-0.062l30.049-0.059l78.012,0.391c4.926,0.054,9.851,0.106,14.777,0.19
								l3.799,0.066l-0.169,7.521l-3.694,0.095c-5.095,0.088-10.256,0.142-15.416,0.197l-30.919,0.253L2250.923,856.52z"/>
						</g>
					</g>
					<g>
						<g>
							<path style="fill:#FFFFFF;" d="M2108.968,961.744l35.486-0.264l35.485-0.151l70.971-0.121l70.973,0.133l35.486,0.165
								l35.485,0.285c0.052,0,0.096,0.043,0.095,0.096c0,0-0.043,0.095-0.095,0.096l-35.485,0.285l-35.486,0.164l-70.973,0.133
								l-70.971-0.121l-35.485-0.152l-35.486-0.264c-0.079,0-0.143-0.065-0.141-0.144
								C2108.827,961.808,2108.89,961.745,2108.968,961.744z"/>
						</g>
						<g>
							<polygon style="fill:#FFFFFF;" points="2250.92,966.311 2144.438,966.04 2105.24,965.747 2105.097,958.142 2108.941,957.999 
								2179.924,957.585 2250.907,957.465 2357.385,957.762 2394.448,958.057 2396.702,960.358 2396.556,965.635 2392.853,965.729 
								2321.899,966.179 							"/>
						</g>
					</g>
					<g>
						<g>
							<path style="fill:#FFFFFF;" d="M2120.314,1016.64l32.65-0.264l32.649-0.15l65.298-0.121l65.299,0.134l32.649,0.164
								l32.649,0.285c0.054,0.001,0.095,0.044,0.095,0.044c-0.001,0.107-0.043,0.148-0.095,0.148l-32.649,0.286l-32.649,0.164
								l-65.299,0.134l-65.298-0.121l-32.649-0.151l-32.65-0.265c-0.078-0.001-0.141-0.066-0.141-0.144
								C2120.173,1016.704,2120.237,1016.642,2120.314,1016.64z"/>
						</g>
						<g>
							<polygon style="fill:#FFFFFF;" points="2250.92,1021.205 2152.947,1020.935 2118.732,1020.661 2116.448,1018.375 
								2116.445,1016.697 2116.527,1013.037 2120.283,1012.898 2185.595,1012.481 2250.905,1012.36 2348.878,1012.656 
								2385.239,1012.974 2385.334,1020.529 2381.509,1020.625 2316.229,1021.074 							"/>
						</g>
					</g>
					<g>
						<g>
							<path style="fill:#FFFFFF;" d="M2348.303,1072.183h-185.439c-0.276,0-0.501-0.226-0.501-0.503
								c0-0.277,0.225-0.502,0.501-0.502h185.439c0.278,0,0.501,0.225,0.501,0.502
								C2348.803,1071.957,2348.58,1072.183,2348.303,1072.183z"/>
						</g>
						<g>
							<path style="fill:#FFFFFF;" d="M2348.302,1075.925h-185.437c-2.333,0-4.232-1.905-4.232-4.245
								c0-2.34,1.899-4.246,4.232-4.246h185.437c2.334,0,4.231,1.905,4.231,4.246
								C2352.533,1074.021,2350.635,1075.925,2348.302,1075.925z"/>
						</g>
					</g>
				</g>
				<g>
					<path style="fill:#FFFFFF;" d="M2249.736,1112.732c-84.086,0-152.495-67.661-152.495-150.83
						c0-83.167,68.409-150.828,152.495-150.828c84.086,0,152.495,67.661,152.495,150.828
						C2402.23,1045.071,2333.821,1112.732,2249.736,1112.732z M2249.736,824.459c-76.706,0-139.111,61.656-139.111,137.443
						c0,75.789,62.405,137.446,139.111,137.446c76.706,0,139.11-61.656,139.11-137.446
						C2388.845,886.116,2326.441,824.459,2249.736,824.459z"/>
				</g>
			</g>
		</g>
		<g>
			<g>
				<g style="opacity:0.3;">
					<path style="fill:#91B3FA;" d="M1329.489,830.331c3.885-0.195,7.37,2.573,7.981,6.501c1.34,8.59,2.324,17.366,2.929,26.084
						c0.294,4.241-2.904,7.918-7.144,8.213c-0.051,0.003-0.101,0.005-0.15,0.008c-4.177,0.21-7.771-2.963-8.061-7.153
						c-0.574-8.282-1.511-16.619-2.782-24.779c-0.655-4.199,2.219-8.137,6.42-8.79
						C1328.951,830.37,1329.221,830.345,1329.489,830.331z M1332.359,897.32c0.3-0.015,0.606-0.013,0.914,0.008
						c4.241,0.286,7.448,3.957,7.161,8.198c-0.59,8.711-1.558,17.483-2.878,26.071c-0.645,4.202-4.557,7.074-8.776,6.44
						c-4.202-0.647-7.083-4.578-6.437-8.776c1.254-8.164,2.173-16.497,2.733-24.776
						C1325.34,900.553,1328.517,897.513,1332.359,897.32z M1320.407,963.274c0.856-0.043,1.734,0.057,2.601,0.318
						c4.07,1.225,6.379,5.516,5.155,9.587c-2.507,8.344-5.409,16.684-8.626,24.786c-1.571,3.95-6.046,5.876-9.994,4.313
						c-3.95-1.569-5.881-6.044-4.313-9.994c3.055-7.694,5.811-15.611,8.192-23.536
						C1314.385,965.546,1317.248,963.433,1320.407,963.274z M1294.002,1024.913c1.414-0.071,2.865,0.248,4.186,1
						c3.694,2.102,4.983,6.802,2.882,10.496c-4.315,7.577-9.008,15.058-13.95,22.236c-2.412,3.495-7.201,4.38-10.704,1.974
						c-3.5-2.41-4.384-7.203-1.974-10.704c4.693-6.816,9.153-13.922,13.25-21.123
						C1289.044,1026.421,1291.464,1025.041,1294.002,1024.913z M1254.516,1079.115c1.984-0.1,4.004,0.563,5.583,2.01
						c3.136,2.87,3.351,7.739,0.48,10.873c-5.873,6.415-12.104,12.67-18.519,18.585c-3.123,2.884-7.992,2.689-10.875-0.438
						c-2.881-3.124-2.685-7.993,0.44-10.877c6.099-5.623,12.021-11.567,17.602-17.664
						C1250.65,1080.051,1252.565,1079.214,1254.516,1079.115z M1204.027,1123.23c2.569-0.129,5.144,1.03,6.718,3.299
						c2.423,3.494,1.556,8.287-1.936,10.711c-7.157,4.965-14.618,9.687-22.174,14.028c-3.688,2.118-8.39,0.846-10.508-2.84
						c-2.117-3.683-0.846-8.389,2.839-10.507c7.18-4.126,14.267-8.61,21.068-13.328
						C1201.258,1123.742,1202.641,1123.299,1204.027,1123.23z M923.276,1155.687c1.065-0.054,2.155,0.114,3.21,0.531
						c7.69,3.039,15.617,5.783,23.559,8.153c4.072,1.216,6.389,5.504,5.173,9.574c-1.214,4.074-5.502,6.39-9.576,5.174
						c-8.364-2.496-16.714-5.385-24.812-8.584c-3.954-1.562-5.892-6.034-4.329-9.987
						C917.645,1157.65,920.355,1155.834,923.276,1155.687z M1145.054,1155.037c3.189-0.16,6.269,1.69,7.527,4.818
						c1.586,3.945-0.326,8.427-4.269,10.013c-8.083,3.251-16.406,6.188-24.738,8.733c-4.07,1.222-8.368-1.045-9.61-5.113
						c-1.241-4.065,1.049-8.367,5.114-9.61c7.913-2.415,15.816-5.205,23.492-8.291
						C1143.386,1155.26,1144.224,1155.079,1145.054,1155.037z M988.011,1173.138c0.507-0.026,1.025-0.003,1.547,0.076
						c8.181,1.241,16.523,2.144,24.796,2.688c4.242,0.281,7.454,3.945,7.175,8.185c-0.281,4.24-3.941,7.474-8.185,7.175
						c-8.704-0.574-17.483-1.523-26.091-2.827c-4.203-0.638-7.094-4.562-6.456-8.763
						C981.353,1175.991,984.432,1173.318,988.011,1173.138z M1080.456,1172.874c3.879-0.195,7.361,2.565,7.979,6.486
						c0.663,4.199-2.204,8.139-6.403,8.805c-8.597,1.356-17.368,2.36-26.069,2.978c-0.054,0.006-0.109,0.009-0.164,0.011
						c-4.17,0.21-7.761-2.954-8.06-7.138c-0.302-4.241,2.889-7.923,7.13-8.224c8.265-0.59,16.596-1.544,24.764-2.834
						C1079.908,1172.917,1080.184,1172.888,1080.456,1172.874z"/>
					<path style="fill:#91B3FA;" d="M875.016,1131.361c1.513-0.076,3.066,0.291,4.45,1.155c3.367,2.1,6.835,4.163,10.305,6.138
						c3.695,2.099,4.989,6.799,2.889,10.493c-2.099,3.697-6.8,4.995-10.495,2.887c-3.652-2.074-7.298-4.245-10.842-6.454
						c-3.606-2.248-4.709-6.997-2.461-10.602C870.249,1132.754,872.584,1131.483,875.016,1131.361z"/>
				</g>
				<g style="opacity:0.3;">
					<path style="fill:#91B3FA;" d="M740.175,939.328c3.71-0.186,7.11,2.34,7.907,6.09c0.823,3.881,1.741,7.811,2.73,11.678
						c1.053,4.119-1.432,8.311-5.55,9.364c-4.136,1.057-8.311-1.434-9.364-5.55c-1.04-4.071-2.008-8.21-2.875-12.296
						c-0.882-4.158,1.774-8.244,5.932-9.127C739.363,939.399,739.771,939.348,740.175,939.328z"/>
					<path style="fill:#91B3FA;" d="M1018.006,577.523c3.537-0.178,7.09-0.296,10.659-0.355c4.25-0.069,7.753,3.319,7.823,7.569
						s-3.338,7.769-7.567,7.825c-8.236,0.137-16.448,0.607-24.501,1.409c-4.234,0.414-8-2.665-8.421-6.894
						c-0.422-4.232,2.667-8.003,6.896-8.423C1007.875,578.156,1012.96,577.777,1018.006,577.523z M1069.244,579.273
						c0.429-0.022,0.868-0.007,1.31,0.046c8.526,1.019,17.105,2.412,25.495,4.14c4.162,0.856,6.843,4.927,5.987,9.088
						c-0.858,4.164-4.935,6.855-9.091,5.987c-7.969-1.64-16.118-2.962-24.221-3.933c-4.22-0.504-7.232-4.335-6.727-8.554
						C1062.45,582.267,1065.568,579.458,1069.244,579.273z M962.967,585.452c3.624-0.182,6.98,2.229,7.86,5.884
						c0.995,4.134-1.549,8.29-5.681,9.286c-7.905,1.902-15.836,4.17-23.575,6.745c-4.036,1.335-8.391-0.843-9.732-4.875
						c-1.341-4.035,0.843-8.392,4.876-9.733c8.149-2.709,16.503-5.098,24.828-7.103
						C962.019,585.542,962.496,585.475,962.967,585.452z M1133.512,594.282c0.976-0.049,1.976,0.091,2.954,0.436
						c8.086,2.866,16.148,6.112,23.96,9.647c3.872,1.753,5.589,6.312,3.836,10.183c-1.753,3.875-6.31,5.594-10.185,3.838
						c-7.417-3.357-15.072-6.44-22.752-9.16c-4.007-1.418-6.104-5.819-4.684-9.824
						C1127.714,596.374,1130.49,594.434,1133.512,594.282z M900.963,607.893c2.973-0.149,5.891,1.444,7.292,4.284
						c1.88,3.813,0.314,8.428-3.499,10.308c-7.289,3.593-14.527,7.551-21.514,11.761c-3.64,2.194-8.371,1.023-10.565-2.621
						c-2.192-3.641-1.02-8.368,2.621-10.562c7.355-4.433,14.976-8.6,22.651-12.385C898.919,608.201,899.945,607.945,900.963,607.893
						z M845.382,643.398c2.376-0.119,4.775,0.862,6.383,2.855c2.668,3.31,2.148,8.155-1.161,10.823
						c-6.346,5.117-12.55,10.561-18.44,16.18c-3.071,2.939-7.942,2.825-10.881-0.254c-2.934-3.076-2.819-7.947,0.255-10.883
						c6.199-5.913,12.727-11.642,19.406-17.026C842.258,644.034,843.815,643.477,845.382,643.398z M798.865,690.176
						c1.808-0.091,3.653,0.451,5.18,1.669c3.324,2.647,3.871,7.49,1.222,10.815c-5.086,6.381-9.957,13.044-14.478,19.809
						c-2.361,3.532-7.137,4.486-10.676,2.12c-3.533-2.363-4.483-7.141-2.12-10.676c4.76-7.117,9.885-14.133,15.236-20.846
						C794.661,691.269,796.736,690.283,798.865,690.176z M763.658,745.981c1.252-0.063,2.536,0.18,3.744,0.766
						c3.823,1.858,5.415,6.462,3.557,10.285c-3.565,7.334-6.856,14.902-9.783,22.496c-1.529,3.966-5.988,5.942-9.948,4.416
						c-3.967-1.528-5.943-5.984-4.415-9.95c3.082-7.999,6.548-15.97,10.301-23.69C758.387,747.688,760.945,746.117,763.658,745.981z
						 M741.553,808.177c0.704-0.035,1.425,0.028,2.146,0.196c4.138,0.969,6.707,5.111,5.737,9.248
						c-1.855,7.92-3.397,16.022-4.581,24.089c-0.618,4.206-4.54,7.11-8.733,6.495c-4.206-0.617-7.115-4.528-6.497-8.734
						c1.247-8.491,2.87-17.022,4.824-25.359C735.25,810.695,738.214,808.345,741.553,808.177z M733.657,873.666
						c0.158-0.008,0.317-0.01,0.477-0.009c4.25,0.045,7.659,3.528,7.612,7.778c-0.064,6,0.056,12.071,0.357,18.052
						c0.109,2.165,0.243,4.325,0.398,6.476c0.305,4.241-2.884,7.926-7.124,8.23c-4.286,0.393-7.923-2.883-8.229-7.121
						c-0.164-2.265-0.303-4.533-0.418-6.812c-0.316-6.29-0.442-12.681-0.374-18.991C726.398,877.18,729.626,873.869,733.657,873.666
						z"/>
					<path style="fill:#91B3FA;" d="M1193.05,623.177c1.528-0.077,3.093,0.299,4.484,1.174c3.525,2.222,7.07,4.56,10.535,6.951
						c3.5,2.413,4.381,7.206,1.968,10.705c-2.414,3.499-7.203,4.384-10.705,1.968c-3.293-2.27-6.66-4.491-10.006-6.601
						c-3.595-2.264-4.674-7.017-2.408-10.613C1188.309,624.556,1190.633,623.298,1193.05,623.177z"/>
				</g>
				<g>
					<path style="fill:#91B3FA;" d="M1187.158,712.856c-1.028-1.139-2.667-1.5-4.078-0.898l-40.28,17.154
						c-16.804-11.646-35.587-20.698-55.803-26.529l-12.147-42.032c-0.426-1.475-1.741-2.516-3.273-2.594l-52.447-2.664
						c-1.533-0.077-2.946,0.826-3.519,2.249l-16.342,40.586c-20.704,3.754-40.306,10.855-58.204,20.74l-38.336-21.146
						c-1.344-0.741-3.01-0.548-4.148,0.48l-38.969,35.203c-1.139,1.029-1.5,2.667-0.898,4.079l17.154,40.28
						c-11.647,16.804-20.697,35.587-26.529,55.804l-42.033,12.147c-1.474,0.426-2.516,1.74-2.594,3.273l-2.663,52.448
						c-0.078,1.532,0.825,2.946,2.249,3.519l40.586,16.343c3.754,20.704,10.854,40.306,20.74,58.203l-21.147,38.336
						c-0.74,1.343-0.548,3.009,0.481,4.148l35.203,38.969c1.029,1.14,2.667,1.5,4.078,0.899l40.28-17.155
						c16.804,11.647,35.587,20.698,55.803,26.529l12.147,42.034c0.426,1.474,1.74,2.516,3.273,2.594l52.448,2.663
						c1.533,0.078,2.946-0.825,3.519-2.249l16.342-40.586c20.704-3.753,40.306-10.855,58.204-20.74l38.335,21.146
						c1.344,0.742,3.01,0.548,4.149-0.48l38.969-35.203c1.139-1.029,1.499-2.666,0.899-4.078l-17.154-40.28
						c11.647-16.804,20.697-35.587,26.529-55.804l42.033-12.147c1.474-0.425,2.516-1.74,2.593-3.273l2.663-52.447
						c0.078-1.533-0.825-2.946-2.249-3.52l-40.586-16.342c-3.754-20.703-10.855-40.305-20.74-58.203l21.146-38.336
						c0.742-1.344,0.548-3.009-0.48-4.149L1187.158,712.856z"/>
					<g>
						<path style="fill:#BDD0FB;" d="M1031.043,834.178c25.699-1.292,49.214,16.445,54.385,42.416
							c5.684,28.549-12.916,56.394-41.462,62.079c-13.83,2.757-27.903-0.042-39.626-7.873c-11.725-7.83-19.7-19.759-22.452-33.588
							c-5.684-28.549,12.916-56.394,41.462-62.079C1025.924,834.622,1028.496,834.306,1031.043,834.178z M1035.605,927.337
							c1.985-0.1,3.973-0.344,5.958-0.739c21.886-4.357,36.147-25.712,31.79-47.596c-4.359-21.888-25.706-36.158-47.598-31.791
							c-21.886,4.357-36.147,25.711-31.79,47.596c2.112,10.604,8.224,19.749,17.215,25.754
							C1018.487,925.439,1026.986,927.77,1035.605,927.337z"/>
					</g>
					<path style="fill:#BDD0FB;" d="M1026.139,758.086c4.414-0.222,8.864-0.223,13.338,0.004l0,0
						c1.408,0.071,2.816,0.165,4.221,0.282c6.93,0.576,13.803,1.702,20.513,3.361c0.091,0.022,0.183,0.045,0.274,0.067
						c0.259,0.065,0.518,0.13,0.777,0.199c0.505,0.128,1.008,0.263,1.51,0.397c1.321,0.355,2.209,1.517,2.276,2.815
						c0.016,0.315-0.017,0.639-0.104,0.96c-0.442,1.642-2.133,2.609-3.773,2.17c-8.448-2.276-17.197-3.654-26.006-4.099
						c-43.755-2.229-83.424,18.693-107.109,51.996c-13.176,18.522-21.406,40.876-22.64,65.213
						c-0.218,4.267-0.218,8.515-0.005,12.724c1.427,28.332,12.463,55.089,31.736,76.423c22.137,24.507,52.494,38.926,85.475,40.601
						c68.116,3.452,126.293-49.125,129.749-117.208c0.214-4.198,0.213-8.391,0.002-12.562c-0.911-18.073-5.767-35.745-14.281-51.732
						c-0.22-0.413-0.336-0.853-0.357-1.291c-0.058-1.153,0.539-2.294,1.627-2.872c1.504-0.795,3.366-0.235,4.165,1.271
						c8.938,16.784,14.038,35.339,14.995,54.312c0.221,4.378,0.221,8.778-0.001,13.184
						c-3.629,71.482-64.755,126.675-136.211,123.048c-34.626-1.758-66.492-16.896-89.732-42.624
						c-20.234-22.396-31.819-50.486-33.318-80.229c-0.222-4.42-0.222-8.878,0.004-13.356c1.759-34.627,16.896-66.495,42.622-89.735
						C968.29,771.165,996.389,759.582,1026.139,758.086z"/>
				</g>
			</g>
			<g>
				<g style="opacity:0.3;">
					<path style="fill:#91B3FA;" d="M1581.619,614.581c2.054-0.103,4.013,1.141,4.724,3.183c1.33,3.81,2.563,7.713,3.662,11.599
						c0.715,2.525-0.752,5.151-3.28,5.868c-2.527,0.726-5.153-0.754-5.868-3.28c-1.048-3.703-2.223-7.423-3.491-11.059
						c-0.866-2.476,0.444-5.186,2.922-6.054C1580.729,614.686,1581.176,614.603,1581.619,614.581z"/>
					<path style="fill:#91B3FA;" d="M1590.447,650.066c2.406-0.121,4.561,1.597,4.932,4.028c1.052,6.869,1.762,13.87,2.11,20.806
						c0.073,1.46,0.13,2.926,0.174,4.398c0.074,2.627-2.135,4.723-4.614,4.894c-2.624,0.076-4.813-1.989-4.891-4.611
						c-0.041-1.406-0.095-2.808-0.165-4.203c-0.333-6.616-1.01-13.294-2.011-19.843c-0.398-2.597,1.384-5.02,3.978-5.42
						C1590.125,650.091,1590.286,650.074,1590.447,650.066z M1591.88,699.402c0.225-0.011,0.455-0.009,0.684,0.012
						c2.615,0.245,4.537,2.561,4.295,5.176c-0.778,8.387-2.084,16.801-3.882,25.002c-0.561,2.566-3.109,4.181-5.661,3.626
						c-2.566-0.563-4.187-3.094-3.626-5.66c1.715-7.825,2.959-15.85,3.703-23.849
						C1587.615,701.327,1589.557,699.519,1591.88,699.402z M1581.307,747.613c0.603-0.03,1.22,0.055,1.824,0.266
						c2.475,0.875,3.769,3.594,2.894,6.069c-2.809,7.927-6.142,15.768-9.915,23.297c-1.176,2.351-4.024,3.298-6.38,2.12
						c-2.346-1.174-3.296-4.032-2.121-6.377c3.597-7.181,6.777-14.652,9.453-22.214
						C1577.726,748.904,1579.441,747.707,1581.307,747.613z M1559.205,791.751c0.983-0.049,1.988,0.207,2.87,0.79
						c2.184,1.457,2.776,4.411,1.32,6.594c-4.675,7.012-9.823,13.791-15.308,20.156c-1.715,1.987-4.719,2.203-6.703,0.495
						c-1.989-1.713-2.212-4.713-0.497-6.705c5.229-6.064,10.142-12.534,14.598-19.219
						C1556.352,792.558,1557.752,791.824,1559.205,791.751z M1526.994,829.15c1.372-0.069,2.765,0.456,3.762,1.554
						c1.763,1.942,1.617,4.948-0.325,6.714c-6.233,5.654-12.872,10.979-19.735,15.824c-2.145,1.521-5.111,1.005-6.625-1.141
						c-1.514-2.146-1.003-5.113,1.141-6.625c6.549-4.624,12.882-9.702,18.828-15.1
						C1524.886,829.609,1525.934,829.203,1526.994,829.15z M1486.687,857.595c1.778-0.089,3.535,0.831,4.432,2.506
						c1.239,2.313,0.365,5.192-1.948,6.433c-7.419,3.971-15.156,7.516-22.994,10.531c-2.46,0.937-5.201-0.283-6.145-2.731
						c-0.943-2.449,0.28-5.201,2.729-6.142c7.476-2.877,14.85-6.254,21.922-10.04
						C1485.323,857.808,1486.007,857.629,1486.687,857.595z M1440.66,875.317c2.225-0.112,4.291,1.36,4.847,3.6
						c0.632,2.548-0.92,5.127-3.468,5.761c-8.14,2.022-16.512,3.558-24.888,4.57c-2.617,0.271-4.977-1.549-5.289-4.154
						c-0.315-2.606,1.544-4.972,4.15-5.289c7.991-0.959,15.976-2.425,23.737-4.354
						C1440.054,875.375,1440.359,875.332,1440.66,875.317z M1366.98,879.624c0.273-0.014,0.555-0.005,0.838,0.032
						c6.876,0.868,13.92,1.374,20.938,1.504c1.063,0.026,2.107,0.038,3.148,0.037c2.627,0.007,4.751,2.136,4.746,4.762
						c-0.001,2.631-2.149,4.83-4.76,4.748c-1.111-0.005-2.22-0.014-3.335-0.041c-7.332-0.138-14.717-0.669-21.927-1.58
						c-2.606-0.329-4.449-2.705-4.12-5.31C1362.8,881.456,1364.72,879.737,1366.98,879.624z"/>
				</g>
				<g style="opacity:0.3;">
					<path style="fill:#91B3FA;" d="M1379.348,480.504c2.592-0.13,4.815,1.85,4.981,4.449c0.166,2.618-1.823,4.879-4.443,5.043
						c-7.888,0.499-15.813,1.483-23.553,2.927c-2.569,0.455-5.065-1.219-5.546-3.802c-0.481-2.583,1.223-5.063,3.802-5.546
						c8.119-1.509,16.426-2.545,24.694-3.068C1379.282,480.508,1379.327,480.505,1379.348,480.504z M1403.667,480.43
						c0.172-0.009,0.341-0.008,0.516,0.002c8.262,0.468,16.58,1.444,24.722,2.899c2.584,0.465,4.305,2.93,3.842,5.514
						c-0.46,2.589-2.944,4.299-5.514,3.847c-7.769-1.39-15.706-2.32-23.591-2.77c-2.62-0.147-4.624-2.394-4.475-5.013
						C1399.307,482.457,1401.274,480.55,1403.667,480.43z M1331.635,489.41c2.105-0.106,4.1,1.207,4.768,3.311
						c0.793,2.498-0.591,5.171-3.093,5.965c-7.537,2.396-14.99,5.266-22.155,8.541c-2.397,1.082-5.208,0.039-6.297-2.352
						c-1.091-2.385-0.039-5.208,2.349-6.3c7.511-3.431,15.326-6.441,23.227-8.948C1330.833,489.501,1331.236,489.43,1331.635,489.41
						z M1451.468,489.007c0.54-0.027,1.094,0.038,1.641,0.205c7.913,2.442,15.754,5.399,23.303,8.79
						c2.396,1.074,3.465,3.888,2.391,6.285c-1.075,2.387-3.889,3.458-6.282,2.389c-7.199-3.231-14.674-6.048-22.218-8.379
						c-2.507-0.775-3.914-3.438-3.139-5.945C1447.771,490.391,1449.53,489.104,1451.468,489.007z M1287.493,509.584
						c1.681-0.084,3.355,0.728,4.294,2.262c1.375,2.241,0.671,5.167-1.565,6.539c-6.726,4.121-13.267,8.699-19.447,13.611
						c-2.058,1.637-5.048,1.29-6.68-0.766c-1.633-2.056-1.29-5.048,0.766-6.68c6.481-5.146,13.339-9.948,20.389-14.272
						C1285.953,509.847,1286.726,509.622,1287.493,509.584z M1249.478,539.758c1.287-0.065,2.593,0.39,3.58,1.364
						c1.869,1.844,1.889,4.855,0.045,6.723c-5.555,5.629-10.816,11.643-15.637,17.872c-1.608,2.079-4.596,2.458-6.669,0.851
						c-2.077-1.606-2.457-4.589-0.851-6.664c5.054-6.533,10.568-12.839,16.389-18.737
						C1247.204,540.287,1248.333,539.816,1249.478,539.758z M1219.784,578.175c0.904-0.045,1.83,0.164,2.666,0.665
						c2.257,1.342,2.996,4.261,1.653,6.517c-4.049,6.79-7.712,13.891-10.89,21.101c-1.06,2.396-3.866,3.49-6.267,2.43
						c-2.402-1.06-3.492-3.863-2.432-6.268c3.334-7.558,7.175-15.007,11.419-22.131
						C1216.78,579.07,1218.249,578.252,1219.784,578.175z"/>
					<path style="fill:#91B3FA;" d="M1495.969,508.992c0.916-0.046,1.854,0.172,2.698,0.683c3.481,2.107,6.913,4.328,10.206,6.598
						c2.16,1.491,2.706,4.452,1.216,6.614c-1.493,2.153-4.45,2.701-6.614,1.215c-3.139-2.166-6.416-4.284-9.736-6.297
						c-2.246-1.36-2.962-4.285-1.602-6.529C1492.987,509.876,1494.446,509.068,1495.969,508.992z"/>
				</g>
				<g>
					<path style="fill:#91B3FA;" d="M1495.104,570.522c-0.688-0.762-1.784-1.003-2.729-0.601l-26.954,11.479
						c-11.244-7.793-23.813-13.85-37.341-17.752l-8.128-28.126c-0.285-0.987-1.164-1.683-2.19-1.736l-35.095-1.782
						c-1.026-0.052-1.971,0.553-2.355,1.505l-10.935,27.159c-13.854,2.512-26.971,7.264-38.947,13.878l-25.652-14.15
						c-0.899-0.495-2.014-0.367-2.776,0.322l-26.076,23.556c-0.762,0.689-1.004,1.785-0.601,2.729l11.479,26.953
						c-7.794,11.244-13.85,23.813-17.752,37.341l-28.127,8.128c-0.987,0.285-1.683,1.164-1.736,2.19l-1.782,35.096
						c-0.052,1.026,0.552,1.972,1.505,2.355L1266.069,710c2.512,13.854,7.264,26.971,13.878,38.947l-14.15,25.653
						c-0.495,0.899-0.367,2.014,0.321,2.775l23.556,26.077c0.688,0.762,1.784,1.003,2.729,0.601l26.954-11.479
						c11.244,7.794,23.813,13.85,37.341,17.752l8.128,28.127c0.285,0.986,1.164,1.683,2.19,1.736l35.096,1.782
						c1.025,0.052,1.971-0.552,2.355-1.505l10.935-27.159c13.854-2.512,26.972-7.264,38.948-13.878l25.652,14.15
						c0.899,0.496,2.015,0.367,2.776-0.321l26.076-23.556c0.762-0.688,1.004-1.784,0.601-2.729l-11.478-26.953
						c7.794-11.245,13.85-23.813,17.752-37.341l28.127-8.128c0.986-0.285,1.683-1.164,1.735-2.19l1.782-35.095
						c0.052-1.026-0.552-1.971-1.505-2.355l-27.159-10.936c-2.512-13.854-7.263-26.971-13.878-38.947l14.15-25.653
						c0.496-0.899,0.367-2.014-0.321-2.776L1495.104,570.522z"/>
					<g>
						<path style="fill:#BDD0FB;" d="M1390.66,651.067c7.659-0.385,15.209,1.685,21.702,6.021
							c7.986,5.334,13.417,13.461,15.292,22.881c3.873,19.439-8.795,38.407-28.24,42.284c-19.478,3.842-38.417-8.802-42.288-28.245
							c-1.877-9.42,0.028-19.007,5.363-26.991c5.334-7.989,13.46-13.421,22.883-15.294
							C1387.131,651.374,1388.9,651.155,1390.66,651.067z M1393.702,713.406c1.278-0.064,2.564-0.222,3.855-0.477
							c14.302-2.852,23.62-16.804,20.772-31.107c-1.38-6.926-5.373-12.907-11.248-16.828c-5.877-3.925-12.926-5.318-19.857-3.948
							l0,0c-6.928,1.38-12.907,5.376-16.83,11.248c-3.925,5.877-5.325,12.929-3.945,19.86
							C1369.039,705.164,1380.825,714.054,1393.702,713.406z"/>
					</g>
					<path style="fill:#BDD0FB;" d="M1387.314,598.098c3.004-0.151,6.039-0.15,9.106,0.003c6.088,0.307,12.151,1.235,18.036,2.761
						c0.264,0.07,0.528,0.141,0.792,0.211c2.04,0.548,3.411,2.343,3.514,4.346c0.024,0.487-0.027,0.987-0.16,1.481
						c-0.682,2.535-3.293,4.024-5.825,3.351c-5.48-1.477-11.144-2.368-16.834-2.654l-0.002,0c-0.312-0.017-0.626-0.029-0.936-0.041
						c-13.472-0.555-26.572,2.27-38.359,8.068c-6.398,3.148-12.41,7.178-17.88,12.031c-0.045,0.039-0.089,0.079-0.134,0.118
						c-0.136,0.123-0.271,0.242-0.405,0.365c-15.863,14.332-25.199,33.984-26.283,55.335c-0.142,2.763-0.141,5.511-0.004,8.237
						c0.924,18.341,8.07,35.663,20.546,49.477c14.333,15.864,33.984,25.195,55.333,26.279c21.337,1.075,41.848-6.212,57.714-20.54
						c15.863-14.332,25.199-33.984,26.283-55.335c0.14-2.717,0.138-5.431,0.003-8.129c-0.591-11.702-3.733-23.141-9.245-33.489
						c-0.339-0.638-0.52-1.317-0.551-1.994c-0.089-1.78,0.833-3.542,2.512-4.435c2.321-1.227,5.195-0.359,6.432,1.964
						c6.166,11.58,9.684,24.38,10.347,37.468c0.152,3.023,0.154,6.058-0.001,9.096c-1.214,23.891-11.657,45.876-29.408,61.911
						c-17.749,16.031-40.666,24.211-64.566,22.981c-23.889-1.211-45.873-11.652-61.907-29.406
						c-13.96-15.45-21.953-34.831-22.987-55.351c-0.153-3.046-0.155-6.123,0.002-9.212
						C1304.797,636.744,1342.022,600.375,1387.314,598.098z"/>
				</g>
			</g>
		</g>
		<g>
			<g>
				
					<linearGradient id="SVGID_00000179612292987295177400000016958835927447686833_" gradientUnits="userSpaceOnUse" x1="835.3438" y1="1697.3436" x2="976.0012" y2="1697.3436">
					<stop  offset="0" style="stop-color:#020039"/>
					<stop  offset="1" style="stop-color:#090056"/>
				</linearGradient>
				<path style="fill:url(#SVGID_00000179612292987295177400000016958835927447686833_);" d="M866.929,2076.51l-31.586-696.358
					c126.294-202.699,170.461,107.981,120.599,696.358H866.929z"/>
				<path d="M835.344,2231.93h13.566h911.143c45.879-83.261-30.297-154.839-250.96-201.575l-629.892-8.583L835.344,2231.93z"/>
			</g>
			<g>
				
					<linearGradient id="SVGID_00000067945676748176918200000007516857383869843328_" gradientUnits="userSpaceOnUse" x1="-204.5778" y1="1783.2786" x2="34.3627" y2="1783.2786" gradientTransform="matrix(1 -0.0041 0.0041 1 1965.7205 2.6162)">
					<stop  offset="0" style="stop-color:#FEBBBA"/>
					<stop  offset="1" style="stop-color:#FF928E"/>
				</linearGradient>
				<path style="fill:url(#SVGID_00000067945676748176918200000007516857383869843328_);" d="M1768.464,1789.112l30.941-8.384
					l93.955-22.167c11.311-2.669,23.219-0.711,33.08,5.436l81.073,50.541l-223.312,0.547L1768.464,1789.112z"/>
				
					<linearGradient id="SVGID_00000085245778207045166210000003585787214226437510_" gradientUnits="userSpaceOnUse" x1="1307.5909" y1="1261.2109" x2="1664.5778" y2="1043.052">
					<stop  offset="0" style="stop-color:#FEBBBA"/>
					<stop  offset="1" style="stop-color:#FF928E"/>
				</linearGradient>
				<path style="fill:url(#SVGID_00000085245778207045166210000003585787214226437510_);" d="M1524.141,1049.598
					c0,0-156.156,93.494-216.632,144.727l125.726,69.467c0,0,67.458-78.578,131.899-111.472L1524.141,1049.598z"/>
				
					<linearGradient id="SVGID_00000020382256643931382370000003670746283595379364_" gradientUnits="userSpaceOnUse" x1="2836.8601" y1="457.2666" x2="2288.1592" y2="900.1943">
					<stop  offset="0" style="stop-color:#FF928E"/>
					<stop  offset="1" style="stop-color:#FE7062"/>
				</linearGradient>
				<path style="fill:url(#SVGID_00000020382256643931382370000003670746283595379364_);" d="M872.996,1906.822
					c0,0,150.152,35.936,293.177-1.213c0,0,199.229-270.149,276.435-343.771c0,0,73.558,223.626,348.857,250.134l18.393-34.311
					c0,0-171.799-129.175-239.885-284.069c-68.085-154.894-95.447-220.964-156.972-261.195
					c-38.318-25.056-61.269-42.185-73.133-51.542c-6.495-5.123-15.431-5.668-22.478-1.334
					C1252.438,1219.471,946.91,1430.587,872.996,1906.822z"/>
				<g>
					
						<linearGradient id="SVGID_00000121267482933769062270000014876311079695391887_" gradientUnits="userSpaceOnUse" x1="-552.35" y1="2407.6521" x2="-801.2025" y2="2736.8638" gradientTransform="matrix(0.9891 -0.1469 0.1469 0.9891 1820.7588 -1478.0726)">
						<stop  offset="0" style="stop-color:#FEBBBA"/>
						<stop  offset="1" style="stop-color:#FF928E"/>
					</linearGradient>
					<path style="fill:url(#SVGID_00000121267482933769062270000014876311079695391887_);" d="M1676.206,975.88
						c0.482,3.245-42.008,215.95-42.008,215.95l-120.936-26.842l10.32-207.584C1523.582,957.404,1668.137,921.553,1676.206,975.88z"
						/>
					
						<linearGradient id="SVGID_00000085211424939476261410000002861491855622704024_" gradientUnits="userSpaceOnUse" x1="-742.4017" y1="2487.0659" x2="-445.1436" y2="2487.0659" gradientTransform="matrix(0.9891 -0.1469 0.1469 0.9891 1820.7588 -1478.0726)">
						<stop  offset="0" style="stop-color:#09005D"/>
						<stop  offset="1" style="stop-color:#1A0F91"/>
					</linearGradient>
					<path style="fill:url(#SVGID_00000085211424939476261410000002861491855622704024_);" d="M1550.948,1003.538l-13.99,108.851
						c-0.179,1.396-0.172,2.774,0.033,4.166c1.254,8.523,7.718,37.528,36.99,29.105c26.561-7.643,50.915-14.223,67.778-9.141
						c7.571,2.282,12.166,9.922,10.615,17.677c-3.866,19.324-13.381,62.71-27.4,99.142c-2.845,7.393-10.912,11.302-18.526,9.117
						c-22.943-6.586-70.941-21.829-106.683-43.137c-4.843-2.887-7.742-8.129-7.528-13.764c1.046-27.469,3.912-110.968,1.111-134.359
						c-2.628-21.955-29.64-35.002-41.373-39.673c-3.847-1.531-6.869-4.544-8.42-8.383c-5.48-13.569-13.087-44.99,26.495-58.043
						c8.284-2.732,12.62-11.693,9.637-19.891c-5.938-16.319-8.516-41.25,22.089-55.118c31.108-14.096,54.453,2.421,67.077,15.871
						c5.104,5.438,13.262,6.237,19.55,2.226c3.58-2.283,8.201-3.046,13.803,0.412c7.548,4.659,17.505,1.421,21.357-6.568
						c7.401-15.351,22.543-31.823,53.077-26.724c54.18,9.048,60.561,69.019,46.423,104.236
						c-14.137,35.217-72.321,22.067-101.555,4.463c-22.227-13.384-50.929,0.86-63.41,8.457
						C1554.145,994.866,1551.538,998.947,1550.948,1003.538z"/>
					
						<linearGradient id="SVGID_00000073684659042777822650000004132558298106743169_" gradientUnits="userSpaceOnUse" x1="-916.8209" y1="2668.3618" x2="-717.2207" y2="2463.5774" gradientTransform="matrix(0.9891 -0.1469 0.1469 0.9891 1820.7588 -1478.0726)">
						<stop  offset="0" style="stop-color:#FEBBBA"/>
						<stop  offset="1" style="stop-color:#FF928E"/>
					</linearGradient>
					<path style="fill:url(#SVGID_00000073684659042777822650000004132558298106743169_);" d="M1488.649,1110.877
						c0,0,22-62.421-0.931-77.591c-22.931-15.17-56.767-7.104-49.123,38.017C1448.103,1127.429,1488.649,1110.877,1488.649,1110.877
						z"/>
				</g>
			</g>
			<g>
				<g>
					<g>
						
							<linearGradient id="SVGID_00000074431363484188077160000003890182583545853608_" gradientUnits="userSpaceOnUse" x1="7851.5127" y1="2811.5161" x2="8163.5024" y2="2811.5161" gradientTransform="matrix(1 0 0 1 -6086.7588 0)">
							<stop  offset="0" style="stop-color:#4F52FF"/>
							<stop  offset="1" style="stop-color:#4042E2"/>
						</linearGradient>
						<path style="fill:url(#SVGID_00000074431363484188077160000003890182583545853608_);" d="M1890.209,2812.823
							c-76.484,0-110.326-6.561-125.455-12.546c2.94,12.56,14.128,22.477,28.264,22.477h270.579c9.112,0,14.864-8.723,12.686-16.62
							C2045.44,2808.615,1979.93,2812.823,1890.209,2812.823z"/>
						<path style="fill:#7D97F4;" d="M2076.282,2806.135c-0.439-1.592-1.084-3.159-2.216-4.604
							c-20.611-26.315-62.014-67.642-118.335-66.849c-82.509,1.162-111.277,10.112-175.394,0.504l-15.125,50.136
							c-1.541,5.111-1.569,10.215-0.459,14.956c15.13,5.985,48.971,12.546,125.455,12.546
							C1979.93,2812.823,2045.44,2808.615,2076.282,2806.135z"/>
					</g>
					
						<linearGradient id="SVGID_00000000217826063557605300000006416173002078809732_" gradientUnits="userSpaceOnUse" x1="7867.0972" y1="2717.4973" x2="7951.5117" y2="2717.4973" gradientTransform="matrix(1 0 0 1 -6086.7588 0)">
						<stop  offset="0" style="stop-color:#FEBBBA"/>
						<stop  offset="1" style="stop-color:#FF928E"/>
					</linearGradient>
					<path style="fill:url(#SVGID_00000000217826063557605300000006416173002078809732_);" d="M1798.905,2681.156l-18.566,63.146
						c0,0,41.133,18.726,77.311,3.693l7.103-54.71L1798.905,2681.156z"/>
					
						<linearGradient id="SVGID_00000094585834257172005390000014827953607491329466_" gradientUnits="userSpaceOnUse" x1="2516.0854" y1="1591.8365" x2="2235.1243" y2="1829.8275">
						<stop  offset="0" style="stop-color:#4F52FF"/>
						<stop  offset="1" style="stop-color:#4042E2"/>
					</linearGradient>
					<path style="fill:url(#SVGID_00000094585834257172005390000014827953607491329466_);" d="M1401.722,1961.704
						c0,0,457.915,37.389,551.852,81.61c93.938,44.222-76.658,664.003-76.658,664.003s-25.573,12.309-82.478-5.381
						c0,0,58.353-457.375,14.932-556.553l-495.802-81.095L1401.722,1961.704z"/>
				</g>
				<g>
					<g>
						
							<linearGradient id="SVGID_00000067231715788377833360000004557983944540563102_" gradientUnits="userSpaceOnUse" x1="7847.1719" y1="2875.175" x2="8164.4326" y2="2875.175" gradientTransform="matrix(1 0 0 1 -6086.7588 0)">
							<stop  offset="0" style="stop-color:#4F52FF"/>
							<stop  offset="1" style="stop-color:#4042E2"/>
						</linearGradient>
						<path style="fill:url(#SVGID_00000067231715788377833360000004557983944540563102_);" d="M1887.988,2876.504
							c-77.777,0-112.19-6.672-127.575-12.758c2.99,12.772,14.367,22.857,28.741,22.857h275.15c9.267,0,15.115-8.87,12.9-16.901
							C2045.841,2872.225,1979.225,2876.504,1887.988,2876.504z"/>
						<path style="fill:#91B3FA;" d="M2077.205,2869.703c-0.446-1.619-1.103-3.213-2.254-4.682
							c-20.959-26.759-63.062-68.785-120.334-67.979c-83.902,1.181-113.157,10.283-178.357,0.512l-15.38,50.983
							c-1.567,5.198-1.595,10.387-0.466,15.209c15.385,6.086,49.798,12.758,127.575,12.758
							C1979.225,2876.504,2045.841,2872.225,2077.205,2869.703z"/>
					</g>
					
						<linearGradient id="SVGID_00000089544677810898367720000016158064660148052921_" gradientUnits="userSpaceOnUse" x1="7863.02" y1="2779.5676" x2="7948.8604" y2="2779.5676" gradientTransform="matrix(1 0 0 1 -6086.7588 0)">
						<stop  offset="0" style="stop-color:#FEBBBA"/>
						<stop  offset="1" style="stop-color:#FF928E"/>
					</linearGradient>
					<path style="fill:url(#SVGID_00000089544677810898367720000016158064660148052921_);" d="M1795.141,2742.613l-18.88,64.214
						c0,0,41.828,19.042,78.617,3.755l7.223-55.635L1795.141,2742.613z"/>
					
						<linearGradient id="SVGID_00000037688117649832385550000017002126462324673716_" gradientUnits="userSpaceOnUse" x1="1167.2672" y1="1857.3185" x2="2044.4958" y2="2716.4602" gradientTransform="matrix(-1 0 0 1 3344.1345 0)">
						<stop  offset="0" style="stop-color:#4F52FF"/>
						<stop  offset="1" style="stop-color:#4042E2"/>
					</linearGradient>
					<path style="fill:url(#SVGID_00000037688117649832385550000017002126462324673716_);" d="M1391.248,2011.005
						c0,0,465.651,38.02,561.175,82.989c95.525,44.969-77.953,675.221-77.953,675.221s-26.005,12.517-83.871-5.472
						c0,0,13.609-430.539-30.545-531.393l-458.45-117.028L1391.248,2011.005z"/>
				</g>
			</g>
			<g>
				
					<linearGradient id="SVGID_00000145045738303122170480000012110185178605206462_" gradientUnits="userSpaceOnUse" x1="661.6202" y1="518.1207" x2="3173.771" y2="2976.9812" gradientTransform="matrix(-1 0 0 1 3344.1345 0)">
					<stop  offset="0" style="stop-color:#09005D"/>
					<stop  offset="1" style="stop-color:#1A0F91"/>
				</linearGradient>
				<path style="fill:url(#SVGID_00000145045738303122170480000012110185178605206462_);" d="M832.337,2006.597l726.617,4.408
					v-2.152c0-35.478-28.145-64.558-63.604-65.718l-632.126-20.674c-25.472-0.833-44.852,22.644-39.208,47.497L832.337,2006.597z"/>
				
					<linearGradient id="SVGID_00000123417325996377181960000007214325787560113028_" gradientUnits="userSpaceOnUse" x1="2793.2976" y1="1096.6229" x2="2394.6399" y2="2066.0859" gradientTransform="matrix(-1 0 0 1 3344.1345 0)">
					<stop  offset="0" style="stop-color:#09005D"/>
					<stop  offset="1" style="stop-color:#1A0F91"/>
				</linearGradient>
				<path style="fill:url(#SVGID_00000123417325996377181960000007214325787560113028_);" d="M544.052,1252.626
					c255.62-73.856,332.02,26.897,309.817,321.802v563.14h-63.833v-666.249c-5.551-145.131-53.429-187.62-222.268-134.285
					C513.375,1343.816,485.2,1270.713,544.052,1252.626z"/>
				
					<linearGradient id="SVGID_00000021828643995754549560000012853987114112827308_" gradientUnits="userSpaceOnUse" x1="1482.8438" y1="2912.894" x2="1787.374" y2="2912.894" gradientTransform="matrix(-1 0 0 1 3344.1345 0)">
					<stop  offset="0" style="stop-color:#09005D"/>
					<stop  offset="1" style="stop-color:#1A0F91"/>
				</linearGradient>
				<path style="fill:url(#SVGID_00000021828643995754549560000012853987114112827308_);" d="M1563.541,2939.184h290.97
					c3.729,0,6.78-3.051,6.78-6.78v-39.021c0-3.729-3.051-6.78-6.78-6.78h-290.97c-3.729,0-6.78,3.051-6.78,6.78v39.021
					C1556.76,2936.133,1559.812,2939.184,1563.541,2939.184z"/>
				
					<linearGradient id="SVGID_00000092452887288463461720000012691291225723578757_" gradientUnits="userSpaceOnUse" x1="622.857" y1="2729.0742" x2="1419.4652" y2="2418.3645">
					<stop  offset="0" style="stop-color:#09005D"/>
					<stop  offset="1" style="stop-color:#1A0F91"/>
				</linearGradient>
				<path style="fill:url(#SVGID_00000092452887288463461720000012691291225723578757_);" d="M872.043,1998.391l875.186,191.888
					c64.526,14.147,110.877,70.775,111.993,136.824l9.292,549.605h-64.63l-43.02-531.312l-924.048-94.958L872.043,1998.391z"/>
				<g>
					
						<linearGradient id="SVGID_00000030453171691298178670000007036981558060642211_" gradientUnits="userSpaceOnUse" x1="1658.8488" y1="2730.8733" x2="1372.2207" y2="3255.3835" gradientTransform="matrix(-1 0 0 1 3344.1345 0)">
						<stop  offset="0" style="stop-color:#09005D"/>
						<stop  offset="1" style="stop-color:#1A0F91"/>
					</linearGradient>
					
						<circle style="fill:url(#SVGID_00000030453171691298178670000007036981558060642211_);" cx="1839.168" cy="3012.468" r="148.721"/>
					
						<linearGradient id="SVGID_00000169524696722053450210000006747532145571208839_" gradientUnits="userSpaceOnUse" x1="1623.0204" y1="2796.4368" x2="1403.1278" y2="3198.8254" gradientTransform="matrix(-1 0 0 1 3344.1345 0)">
						<stop  offset="0" style="stop-color:#4F52FF"/>
						<stop  offset="1" style="stop-color:#4042E2"/>
					</linearGradient>
					
						<circle style="opacity:0.59;fill:url(#SVGID_00000169524696722053450210000006747532145571208839_);" cx="1839.168" cy="3012.468" r="114.094"/>
				</g>
				<g>
					
						<linearGradient id="SVGID_00000092451065019686406340000006729766249272949144_" gradientUnits="userSpaceOnUse" x1="1585.3611" y1="2524.7771" x2="2793.2864" y2="2524.7771" gradientTransform="matrix(-1 0 0 1 3344.1345 0)">
						<stop  offset="0" style="stop-color:#09005D"/>
						<stop  offset="1" style="stop-color:#1A0F91"/>
					</linearGradient>
					
						<circle style="fill:url(#SVGID_00000092451065019686406340000006729766249272949144_);" cx="1154.811" cy="2524.777" r="603.963"/>
					
						<linearGradient id="SVGID_00000160186452842976839210000012606691007606409859_" gradientUnits="userSpaceOnUse" x1="2467.3191" y1="2045.2312" x2="1470.1635" y2="3869.9587" gradientTransform="matrix(-1 0 0 1 3344.1345 0)">
						<stop  offset="0" style="stop-color:#4F52FF"/>
						<stop  offset="1" style="stop-color:#4042E2"/>
					</linearGradient>
					
						<circle style="opacity:0.59;fill:url(#SVGID_00000160186452842976839210000012606691007606409859_);" cx="1144.504" cy="2535.083" r="517.388"/>
				</g>
			</g>
			<g>
				<g>
					
						<linearGradient id="SVGID_00000173158556505229375670000004390723084294463668_" gradientUnits="userSpaceOnUse" x1="38576.1523" y1="-38979.832" x2="37886.3594" y2="-38312.9375" gradientTransform="matrix(-1.388 -0.0686 -0.0685 1.3855 -2702.718 -570.6171)">
						<stop  offset="0" style="stop-color:#09005D"/>
						<stop  offset="1" style="stop-color:#1A0F91"/>
					</linearGradient>
					<path style="fill:url(#SVGID_00000173158556505229375670000004390723084294463668_);" d="M1602.381,1858.147
						c0.393,0.019,0.787,0.03,1.184,0.027l514.964-0.514c12.73-0.01,23.038-10.321,23.024-23.028
						c-0.014-12.711-10.383-23.213-23.079-22.986l-514.964,0.515c-12.73,0.009-23.037,10.321-23.023,23.027
						C1580.502,1847.499,1590.201,1857.544,1602.381,1858.147z"/>
				</g>
				<g>
					
						<linearGradient id="SVGID_00000036218884423861282820000015448340816283500420_" gradientUnits="userSpaceOnUse" x1="34568.8086" y1="-37471.9805" x2="33879.043" y2="-36805.1133" gradientTransform="matrix(0.6475 -1.2297 -1.2274 -0.6463 10763.4268 -5472.2012)">
						<stop  offset="0" style="stop-color:#09005D"/>
						<stop  offset="1" style="stop-color:#1A0F91"/>
					</linearGradient>
					<path style="fill:url(#SVGID_00000036218884423861282820000015448340816283500420_);" d="M2321.612,1353.834
						c-0.183,0.349-0.359,0.701-0.524,1.063l-216.676,467.162c-5.359,11.547-0.355,25.241,11.173,30.586
						c11.532,5.348,25.427,0.374,30.574-11.234l216.676-467.162c5.359-11.547,0.356-25.241-11.172-30.586
						C2340.492,1338.485,2327.293,1343.045,2321.612,1353.834z"/>
				</g>
			</g>
			<g>
				<path style="fill:#7D97F4;" d="M912.667,1899.46c-2.747,10.744-265.079,939.915-331.589,1175.475
					c-7.666,27.149,13.742,53.805,43.162,53.805l0,0c20.514,0,38.394-13.348,43.362-32.372l316.064-1191.284L912.667,1899.46z"/>
				<path style="fill:#7D97F4;" d="M1412.672,1904.615c0.096,11.015-12.891,968.61-16.188,1211.378
					c-0.38,27.979,24.149,49.592,49.471,43.635l0,0c17.656-4.154,29.988-20.768,29.907-40.292l-0.795-1223.623L1412.672,1904.615z"
					/>
				<path style="fill:#7D97F4;" d="M2060.742,1859.358c2.81,11.294,264.946,965.219,332.975,1212.825
					c7.84,28.537-14.055,56.556-44.147,56.556l0,0c-20.982,0-39.271-14.031-44.353-34.027l-297.854-1172.061L2060.742,1859.358z"/>
				<path style="fill:#7D97F4;" d="M875.716,1843.255h1193.052c16.674,0,31.236,7.151,35.402,17.385l16.657,40.91
					c5.994,14.724-11.625,29.056-35.613,28.968l-1224.196-4.46c-23.728-0.087-41.042-14.254-35.245-28.839l14.487-36.449
					C844.353,1850.472,858.962,1843.255,875.716,1843.255z"/>
				<g>
					<circle style="fill:#91B3FA;" cx="1437.487" cy="3085.684" r="123.92"/>
					
						<ellipse transform="matrix(0.7071 -0.7071 0.7071 0.7071 -1760.8778 1920.233)" style="fill:#7D97F4;" cx="1437.487" cy="3085.684" rx="95.068" ry="95.068"/>
				</g>
			</g>
			
				<linearGradient id="SVGID_00000115500149668614382330000015508372919018867878_" gradientUnits="userSpaceOnUse" x1="1479.5408" y1="1461.6777" x2="2305.9158" y2="946.0189">
				<stop  offset="0" style="stop-color:#FF928E"/>
				<stop  offset="1" style="stop-color:#FE7062"/>
			</linearGradient>
			<path style="fill:url(#SVGID_00000115500149668614382330000015508372919018867878_);" d="M1439.095,1561.29
				c-0.75,0-1.477-0.4-1.861-1.104c-26.291-48.328-33.018-63.086-51.405-112.792c-0.405-1.096,0.155-2.313,1.25-2.719
				c1.097-0.404,2.313,0.154,2.719,1.25c18.295,49.458,24.988,64.143,51.153,112.238c0.559,1.027,0.179,2.311-0.847,2.87
				C1439.784,1561.207,1439.437,1561.29,1439.095,1561.29z"/>
		</g>
		<g>
			
				<linearGradient id="SVGID_00000042701819554942791760000018093978896864181410_" gradientUnits="userSpaceOnUse" x1="2697.5029" y1="3679.5063" x2="2671.0598" y2="3315.9097">
				<stop  offset="0" style="stop-color:#FF928E"/>
				<stop  offset="1" style="stop-color:#FE7062"/>
			</linearGradient>
			<path style="fill:url(#SVGID_00000042701819554942791760000018093978896864181410_);" d="M2166.414,2796.915l20.493,307.963
				c3.575,53.701,49.16,94.969,103.209,93.434l738.437-20.983c36.125-1.026,65.993-28.326,70.047-64.071
				c8.873-78.253,18.802-218.066-2.248-348.254L2166.414,2796.915z"/>
			<path style="fill:#FFFFFF;" d="M2310.937,3180.099c-1.125,0-2.05-0.895-2.083-2.023c-0.032-1.15,0.874-2.11,2.023-2.142
				l16.657-0.472c1.372-0.157,2.107,0.873,2.143,2.023c0.032,1.15-0.874,2.11-2.023,2.142l-16.657,0.472
				C2310.997,3180.099,2310.957,3180.099,2310.937,3180.099z M2366.458,3178.521c-1.125,0-2.05-0.895-2.083-2.023
				c-0.032-1.15,0.874-2.11,2.023-2.142l16.657-0.472c1.226-0.092,2.107,0.879,2.143,2.023c0.032,1.15-0.874,2.11-2.023,2.142
				l-16.657,0.472C2366.496,3178.521,2366.477,3178.521,2366.458,3178.521z M2421.978,3176.942c-1.123,0-2.05-0.895-2.083-2.023
				c-0.032-1.15,0.874-2.11,2.023-2.143l16.654-0.472c1.248,0.065,2.11,0.873,2.143,2.023c0.032,1.15-0.874,2.11-2.023,2.143
				l-16.654,0.471C2422.016,3176.942,2421.996,3176.942,2421.978,3176.942z M2477.498,3175.369c-1.123,0-2.05-0.895-2.083-2.023
				c-0.032-1.15,0.874-2.11,2.023-2.143l16.654-0.477c1.186,0.01,2.11,0.878,2.143,2.023c0.032,1.15-0.874,2.11-2.023,2.143
				l-16.654,0.477C2477.558,3175.369,2477.517,3175.369,2477.498,3175.369z M2272.655,3175.006c-0.226,0-0.456-0.038-0.681-0.114
				c-5.34-1.85-10.561-4.182-15.518-6.932c-1.007-0.559-1.367-1.828-0.808-2.831c0.556-1.009,1.825-1.378,2.831-0.814
				c4.746,2.636,9.744,4.871,14.856,6.639c1.087,0.375,1.662,1.562,1.289,2.652
				C2274.325,3174.463,2273.517,3175.006,2272.655,3175.006z M2533.015,3173.791c-1.122,0-2.05-0.895-2.083-2.023
				c-0.032-1.15,0.874-2.11,2.023-2.143l16.657-0.477c1.12-0.043,2.11,0.879,2.143,2.023c0.032,1.15-0.874,2.109-2.023,2.142
				l-16.657,0.477C2533.056,3173.791,2533.034,3173.791,2533.015,3173.791z M2588.535,3172.213c-1.125,0-2.05-0.896-2.083-2.023
				c-0.032-1.15,0.874-2.11,2.023-2.142l16.657-0.472c1.22-0.098,2.107,0.873,2.142,2.023c0.033,1.15-0.873,2.11-2.023,2.142
				l-16.657,0.472H2588.535z M2644.055,3170.634c-1.125,0-2.05-0.895-2.083-2.023c-0.032-1.15,0.873-2.11,2.023-2.142l16.654-0.472
				c1.323-0.152,2.11,0.873,2.143,2.023c0.032,1.15-0.874,2.11-2.023,2.142l-16.654,0.472
				C2644.094,3170.634,2644.074,3170.634,2644.055,3170.634z M2699.575,3169.056c-1.125,0-2.05-0.895-2.083-2.023
				c-0.032-1.15,0.873-2.11,2.023-2.142l16.654-0.472c1.313-0.108,2.11,0.874,2.142,2.023c0.033,1.15-0.873,2.11-2.023,2.142
				l-16.654,0.472C2699.613,3169.056,2699.594,3169.056,2699.575,3169.056z M2755.093,3167.477c-1.125,0-2.05-0.895-2.083-2.023
				c-0.032-1.15,0.873-2.11,2.023-2.143l16.657-0.471c1.358,0.071,2.11,0.873,2.142,2.023c0.033,1.15-0.873,2.11-2.023,2.143
				l-16.657,0.472H2755.093z M2810.613,3165.899c-1.125,0-2.05-0.895-2.083-2.023c-0.032-1.15,0.873-2.11,2.023-2.143l16.657-0.471
				c1.285,0.103,2.11,0.873,2.142,2.023c0.033,1.15-0.873,2.11-2.023,2.143l-16.657,0.471
				C2810.651,3165.899,2810.632,3165.899,2810.613,3165.899z M2866.133,3164.321c-1.125,0-2.05-0.895-2.083-2.023
				c-0.033-1.15,0.873-2.11,2.023-2.142l16.654-0.472c1.356,0.049,2.11,0.879,2.143,2.023c0.032,1.15-0.873,2.109-2.023,2.142
				l-16.655,0.472C2866.171,3164.321,2866.152,3164.321,2866.133,3164.321z M2921.65,3162.742c-1.125,0-2.05-0.895-2.083-2.023
				c-0.032-1.15,0.873-2.11,2.023-2.142l16.657-0.472c1.334-0.087,2.11,0.879,2.142,2.023c0.033,1.15-0.873,2.11-2.023,2.142
				l-16.657,0.472C2921.71,3162.742,2921.669,3162.742,2921.65,3162.742z M2977.171,3161.169c-1.123,0-2.05-0.895-2.083-2.023
				c-0.033-1.15,0.873-2.11,2.023-2.142l16.657-0.478c1.106-0.141,2.11,0.874,2.142,2.023c0.033,1.15-0.873,2.11-2.023,2.142
				l-16.657,0.478C2977.211,3161.169,2977.19,3161.169,2977.171,3161.169z M3032.156,3155.783c-0.841,0-1.632-0.51-1.947-1.345
				c-0.406-1.074,0.133-2.278,1.21-2.685c5.042-1.909,9.847-4.432,14.279-7.485c0.946-0.651,2.243-0.412,2.896,0.531
				c0.654,0.949,0.415,2.246-0.531,2.896c-4.708,3.249-9.812,5.923-15.168,7.951
				C3032.653,3155.74,3032.403,3155.783,3032.156,3155.783z M2228.186,3143.069c-0.624,0-1.239-0.277-1.651-0.808
				c-3.471-4.497-6.563-9.308-9.188-14.314c-0.534-1.014-0.141-2.278,0.876-2.809c1.028-0.537,2.281-0.141,2.812,0.879
				c2.514,4.784,5.473,9.395,8.798,13.696c0.702,0.911,0.534,2.219-0.375,2.924
				C2229.079,3142.928,2228.631,3143.069,2228.186,3143.069z M3071.171,3118.39c-0.274,0-0.55-0.054-0.816-0.168
				c-1.058-0.45-1.551-1.671-1.101-2.729c2.107-4.952,3.607-10.159,4.461-15.485c0.182-1.134,1.243-1.888,2.384-1.725
				c1.136,0.179,1.909,1.248,1.728,2.387c-0.906,5.657-2.5,11.195-4.738,16.451C3072.75,3117.913,3071.979,3118.39,3071.171,3118.39
				z M2208.611,3091.943c-1.076,0-1.99-0.83-2.074-1.926l-1.109-16.646c-0.076-1.145,0.792-2.137,1.939-2.213
				c1.141-0.135,2.139,0.792,2.216,1.942l1.109,16.603c0.087,1.144-0.77,2.148-1.917,2.234
				C2208.719,3091.943,2208.665,3091.943,2208.611,3091.943z M3079.815,3063.749c-0.063,0-0.125,0-0.19-0.011
				c-1.145-0.103-1.991-1.112-1.888-2.257c0.483-5.359,0.955-10.891,1.408-16.586c0.095-1.144,1.117-2.001,2.243-1.909
				c1.147,0.092,2.001,1.095,1.912,2.246c-0.458,5.706-0.93,11.249-1.413,16.619
				C3081.789,3062.935,3080.881,3063.749,3079.815,3063.749z M2204.92,3036.526c-1.088,0-2.002-0.847-2.075-1.947l-1.106-16.619
				c-0.076-1.15,0.792-2.142,1.939-2.218c1.164-0.135,2.14,0.792,2.216,1.942l1.107,16.625c0.075,1.144-0.792,2.136-1.939,2.213
				C2205.014,3036.526,2204.966,3036.526,2204.92,3036.526z M3083.821,3008.348c-0.038,0-0.076,0-0.117-0.005
				c-1.147-0.06-2.029-1.041-1.966-2.192c0.295-5.445,0.569-10.989,0.811-16.614c0.046-1.155,1.12-2.067,2.169-1.996
				c1.15,0.049,2.04,1.025,1.991,2.17c-0.242,5.646-0.516,11.201-0.811,16.668
				C3085.838,3007.486,3084.919,3008.348,3083.821,3008.348z M2201.232,2981.104c-1.088,0-2.002-0.847-2.075-1.942l-1.107-16.624
				c-0.075-1.15,0.792-2.143,1.94-2.218c1.117-0.125,2.137,0.792,2.215,1.936l1.106,16.63c0.076,1.145-0.792,2.137-1.939,2.213
				C2201.327,2981.104,2201.278,2981.104,2201.232,2981.104z M3085.794,2952.844c0,0-0.022,0-0.032,0
				c-1.153-0.022-2.07-0.966-2.051-2.115c0.089-5.495,0.147-11.038,0.171-16.646c0.005-1.144,1.158-2.175,2.091-2.072
				c1.15,0.006,2.08,0.944,2.074,2.094c-0.024,5.62-0.082,11.184-0.171,16.69
				C3087.858,2951.933,3086.931,2952.844,3085.794,2952.844z M2197.546,2925.686c-1.088,0-2.001-0.846-2.075-1.942l-1.106-16.625
				c-0.076-1.15,0.792-2.142,1.939-2.218c1.134-0.125,2.139,0.792,2.216,1.937l1.106,16.624c0.076,1.15-0.792,2.143-1.939,2.218
				C2197.641,2925.686,2197.592,2925.686,2197.546,2925.686z M3085.537,2897.308c-1.125,0-2.053-0.895-2.083-2.029
				c-0.146-5.511-0.331-11.048-0.556-16.614c-0.048-1.15,0.846-2.12,1.996-2.169c1.034-0.006,2.116,0.846,2.165,1.996
				c0.23,5.587,0.415,11.146,0.561,16.679c0.03,1.15-0.879,2.104-2.028,2.137H3085.537z M2193.858,2870.269
				c-1.088,0-2.002-0.847-2.075-1.942l-1.106-16.635c-0.076-1.145,0.792-2.137,1.939-2.213c1.155-0.114,2.14,0.792,2.215,1.942
				l1.107,16.625c0.075,1.15-0.792,2.142-1.94,2.218C2193.952,2870.269,2193.904,2870.269,2193.858,2870.269z M3082.713,2841.853
				c-1.076,0-1.99-0.83-2.074-1.926c-0.421-5.511-0.889-11.038-1.41-16.565c-0.106-1.145,0.735-2.159,1.879-2.267
				c1.161-0.092,2.159,0.732,2.27,1.877c0.52,5.549,0.99,11.097,1.416,16.64c0.087,1.145-0.771,2.148-1.918,2.235
				C3082.823,2841.853,3082.768,2841.853,3082.713,2841.853z M2190.169,2814.847c-1.087,0-2.002-0.846-2.074-1.947l-1.25-18.767
				l17.964-0.619c1.318,0.038,2.113,0.863,2.153,2.012c0.038,1.15-0.862,2.116-2.012,2.154l-13.663,0.467l0.963,14.477
				c0.076,1.15-0.792,2.142-1.939,2.219C2190.264,2814.847,2190.215,2814.847,2190.169,2814.847z M2243.737,2796.345
				c-1.117,0-2.042-0.884-2.083-2.012c-0.038-1.15,0.863-2.116,2.012-2.153l16.652-0.569c1.326-0.06,2.112,0.862,2.153,2.012
				c0.038,1.15-0.863,2.115-2.012,2.153l-16.652,0.569C2243.807,2796.345,2243.758,2796.345,2243.737,2796.345z M2299.241,2794.441
				c-1.117,0-2.04-0.884-2.08-2.012c-0.038-1.15,0.862-2.115,2.012-2.153l16.654-0.569c1.212-0.021,2.113,0.863,2.153,2.012
				c0.038,1.15-0.863,2.116-2.012,2.154l-16.654,0.569C2299.29,2794.441,2299.265,2794.441,2299.241,2794.441z M2354.752,2792.538
				c-1.117,0-2.042-0.884-2.083-2.012c-0.038-1.15,0.863-2.11,2.012-2.153l16.655-0.575c1.239,0.027,2.112,0.863,2.153,2.013
				c0.038,1.15-0.863,2.11-2.01,2.153l-16.657,0.575C2354.799,2792.538,2354.774,2792.538,2354.752,2792.538z M2410.262,2790.634
				c-1.118,0-2.042-0.884-2.083-2.012c-0.038-1.15,0.862-2.11,2.012-2.153l16.652-0.575c1.261-0.06,2.115,0.862,2.156,2.012
				c0.038,1.15-0.863,2.11-2.012,2.153l-16.652,0.575C2410.335,2790.634,2410.284,2790.634,2410.262,2790.634z M2465.771,2788.724
				c-1.12,0-2.042-0.884-2.083-2.012c-0.038-1.15,0.863-2.115,2.012-2.154l16.654-0.569c1.277,0.135,2.113,0.863,2.154,2.012
				c0.038,1.15-0.862,2.115-2.012,2.153l-16.654,0.569C2465.817,2788.724,2465.793,2788.724,2465.771,2788.724z M2521.277,2786.821
				c-1.117,0-2.039-0.884-2.08-2.012c-0.038-1.15,0.863-2.115,2.012-2.153l16.655-0.57c1.296,0.043,2.112,0.863,2.153,2.012
				c0.038,1.15-0.862,2.116-2.012,2.154l-16.655,0.57C2521.326,2786.821,2521.302,2786.821,2521.277,2786.821z M3076.861,2786.625
				c-1.025,0-1.917-0.754-2.061-1.801c-0.754-5.489-1.562-10.967-2.432-16.44c-0.179-1.134,0.596-2.202,1.733-2.381
				c1.104-0.157,2.199,0.591,2.384,1.73c0.87,5.495,1.684,11.006,2.443,16.527c0.157,1.139-0.64,2.192-1.779,2.343
				C3077.051,2786.62,3076.956,2786.625,3076.861,2786.625z M2576.79,2784.917c-1.12,0-2.042-0.884-2.083-2.012
				c-0.038-1.15,0.863-2.116,2.012-2.154l16.654-0.569c1.234-0.049,2.113,0.862,2.154,2.012c0.038,1.15-0.863,2.115-2.012,2.153
				l-16.654,0.569C2576.86,2784.917,2576.811,2784.917,2576.79,2784.917z M2632.299,2783.013c-1.117,0-2.042-0.884-2.083-2.012
				c-0.038-1.15,0.863-2.11,2.012-2.153l16.652-0.575c1.337-0.13,2.112,0.857,2.156,2.012c0.038,1.15-0.863,2.11-2.013,2.153
				l-16.651,0.575C2632.348,2783.013,2632.32,2783.013,2632.299,2783.013z M2687.808,2781.109c-1.117,0-2.042-0.884-2.083-2.012
				c-0.038-1.15,0.862-2.109,2.01-2.153l16.654-0.575c1.215,0.065,2.11,0.863,2.153,2.012c0.038,1.15-0.862,2.11-2.009,2.153
				l-16.652,0.575C2687.857,2781.109,2687.83,2781.109,2687.808,2781.109z M2743.315,2779.2c-1.118,0-2.04-0.884-2.08-2.012
				c-0.038-1.15,0.863-2.115,2.012-2.153l16.652-0.569c1.263-0.038,2.112,0.862,2.153,2.012c0.038,1.15-0.862,2.115-2.012,2.153
				l-16.651,0.569C2743.388,2779.2,2743.339,2779.2,2743.315,2779.2z M2798.826,2777.296c-1.117,0-2.042-0.884-2.083-2.012
				c-0.038-1.15,0.863-2.115,2.012-2.153l16.652-0.569c1.272-0.13,2.113,0.857,2.153,2.012c0.038,1.15-0.863,2.115-2.012,2.153
				l-16.652,0.569C2798.873,2777.296,2798.848,2777.296,2798.826,2777.296z M2854.336,2775.392c-1.12,0-2.042-0.884-2.083-2.012
				c-0.038-1.15,0.863-2.115,2.012-2.153l16.652-0.57c1.142,0,2.113,0.857,2.153,2.012c0.038,1.15-0.862,2.115-2.012,2.153
				l-16.652,0.569C2854.382,2775.392,2854.358,2775.392,2854.336,2775.392z M2909.845,2773.489c-1.12,0-2.042-0.884-2.083-2.012
				c-0.038-1.15,0.863-2.115,2.012-2.153l16.652-0.57c1.288-0.038,2.112,0.863,2.153,2.012c0.038,1.15-0.863,2.116-2.012,2.153
				l-16.652,0.57C2909.916,2773.489,2909.867,2773.489,2909.845,2773.489z M2965.355,2771.585c-1.117,0-2.042-0.884-2.083-2.012
				c-0.038-1.15,0.862-2.11,2.01-2.153l16.651-0.575c1.313-0.092,2.116,0.863,2.156,2.012c0.038,1.15-0.863,2.11-2.01,2.153
				l-16.654,0.575C2965.401,2771.585,2965.376,2771.585,2965.355,2771.585z M3020.864,2769.681c-1.118,0-2.042-0.884-2.083-2.012
				c-0.038-1.15,0.863-2.11,2.012-2.153l16.649-0.575c1.332,0.103,2.112,0.863,2.156,2.012c0.038,1.15-0.862,2.11-2.012,2.154
				l-16.651,0.575C3020.91,2769.681,3020.885,2769.681,3020.864,2769.681z"/>
			
				<linearGradient id="SVGID_00000021120946632786461560000000186506864761578149_" gradientUnits="userSpaceOnUse" x1="10027.3545" y1="2299.1753" x2="10021.9297" y2="2167.6072" gradientTransform="matrix(0.9995 -0.0343 0.0343 0.9995 -7657.668 670.9679)">
				<stop  offset="0" style="stop-color:#E1473D"/>
				<stop  offset="1" style="stop-color:#E9605A"/>
			</linearGradient>
			<path style="fill:url(#SVGID_00000021120946632786461560000000186506864761578149_);" d="M2375.101,2565.676l1.405-23.854
				c2.313-5.763,7.38-9.96,13.498-11.15c22.876-4.451,79.698-12.844,107.869,6.74l5.052,27.49L2375.101,2565.676z"/>
			
				<linearGradient id="SVGID_00000000927923491735027820000004916029415687477640_" gradientUnits="userSpaceOnUse" x1="10020.4863" y1="2101.6421" x2="10047.6133" y2="2478.7151" gradientTransform="matrix(0.9995 -0.0343 0.0343 0.9995 -7657.668 670.9679)">
				<stop  offset="0" style="stop-color:#E1473D"/>
				<stop  offset="1" style="stop-color:#E9605A"/>
			</linearGradient>
			<path style="fill:url(#SVGID_00000000927923491735027820000004916029415687477640_);" d="M2446.166,2540.333
				c-5.252,1.473-10.557,1.652-15.917,0.528c-6.485-1.359-11.219-6.957-11.445-13.551l-2.554-74.453l37.889-1.301l2.554,74.398
				C2456.921,2532.577,2452.574,2538.534,2446.166,2540.333z"/>
			
				<linearGradient id="SVGID_00000116944841556471217110000004763942856165825418_" gradientUnits="userSpaceOnUse" x1="10393.9053" y1="2284.0601" x2="10388.4805" y2="2152.4924" gradientTransform="matrix(0.9995 -0.0343 0.0343 0.9995 -7657.668 670.9679)">
				<stop  offset="0" style="stop-color:#E1473D"/>
				<stop  offset="1" style="stop-color:#E9605A"/>
			</linearGradient>
			<path style="fill:url(#SVGID_00000116944841556471217110000004763942856165825418_);" d="M2742.092,2553.083l1.405-23.854
				c2.313-5.762,7.381-9.96,13.499-11.149c22.875-4.452,79.698-12.844,107.868,6.74l5.052,27.489L2742.092,2553.083z"/>
			
				<linearGradient id="SVGID_00000121265139402305287870000014466767407614911677_" gradientUnits="userSpaceOnUse" x1="10386.0508" y1="2075.344" x2="10413.1777" y2="2452.4143" gradientTransform="matrix(0.9995 -0.0343 0.0343 0.9995 -7657.668 670.9679)">
				<stop  offset="0" style="stop-color:#E1473D"/>
				<stop  offset="1" style="stop-color:#E9605A"/>
			</linearGradient>
			<path style="fill:url(#SVGID_00000121265139402305287870000014466767407614911677_);" d="M2813.156,2527.739
				c-5.251,1.474-10.557,1.652-15.916,0.528c-6.486-1.36-11.219-6.957-11.445-13.551l-2.823-82.297l37.89-1.3l2.823,82.242
				C2823.911,2519.983,2819.565,2525.942,2813.156,2527.739z"/>
			
				<linearGradient id="SVGID_00000085934423426311147150000017506990254949563793_" gradientUnits="userSpaceOnUse" x1="2840.0974" y1="2204.7378" x2="2658.2988" y2="2379.9255">
				<stop  offset="0" style="stop-color:#E1473D"/>
				<stop  offset="1" style="stop-color:#E9605A"/>
			</linearGradient>
			<path style="fill:url(#SVGID_00000085934423426311147150000017506990254949563793_);" d="M2413.029,2471.239l407.017-27.472
				c9.279-0.626,16.931-7.598,18.214-16.768c1.795-12.832,3.107-31.997-0.506-51.693c-4.11-22.397-24.047-38.456-46.923-38.217
				c-76.078,0.8-269.593,7.495-374.802,53.344c-11.127,4.85-19.163,14.777-21.615,26.618c-2.341,11.293-3.637,26.311,0.444,41.41
				C2397.025,2466.486,2404.701,2471.801,2413.029,2471.239z"/>
			<path style="opacity:0.73;fill:#FFFFFF;" d="M2405.179,2454.063c-2.737,0-5.118-2.023-5.494-4.805
				c-0.092-0.673-2.192-16.603,1.448-32.154c2.942-12.578,12.448-22.933,24.812-27.022c22.662-7.501,66.024-20.41,101.817-22.645
				c3.043-0.147,5.698,2.131,5.888,5.196c0.19,3.065-2.137,5.701-5.199,5.89c-34.543,2.153-76.864,14.775-99.018,22.103
				c-8.716,2.886-15.415,10.17-17.484,19.006c-3.16,13.506-1.278,27.988-1.256,28.134c0.406,3.037-1.725,5.836-4.762,6.243
				C2405.679,2454.047,2405.427,2454.063,2405.179,2454.063z"/>
			
				<linearGradient id="SVGID_00000141442702156583920200000002454859149419657354_" gradientUnits="userSpaceOnUse" x1="2270.7869" y1="3249.8293" x2="3123.6738" y2="1980.418">
				<stop  offset="0" style="stop-color:#FF928E"/>
				<stop  offset="1" style="stop-color:#FE7062"/>
			</linearGradient>
			<path style="fill:url(#SVGID_00000141442702156583920200000002454859149419657354_);" d="M2185.727,2562.901
				c131.585-6.2,700.864-31.726,866.97-17.444c14.302,1.23,26.281,11.25,29.845,25.091c11.292,43.854,34.479,145.834,35.64,247.672
				c0.157,13.858-9.595,25.891-23.179,28.947l-375.152,84.394l-134.131,4.604l-405.087-66.171
				c-14.278-2.332-25.145-13.984-26.373-28.335c-4.371-51.104-12.581-171.084-1.39-248.877
				C2155.25,2576.251,2168.97,2563.691,2185.727,2562.901z"/>
			<path style="fill:#FFFFFF;" d="M2587.809,2905.601c-0.112,0-0.225-0.011-0.339-0.027l-16.445-2.685
				c-1.134-0.184-1.904-1.258-1.719-2.392c0.187-1.134,1.247-1.894,2.392-1.72l16.445,2.685c1.134,0.184,1.904,1.259,1.72,2.392
				C2589.693,2904.874,2588.812,2905.601,2587.809,2905.601z M2611.756,2904.777c-1.117,0-2.042-0.884-2.083-2.012
				c-0.038-1.15,0.863-2.115,2.012-2.153l16.654-0.57c1.158,0.017,2.113,0.857,2.153,2.012c0.038,1.15-0.863,2.116-2.012,2.153
				l-16.654,0.57C2611.826,2904.777,2611.777,2904.777,2611.756,2904.777z M2667.265,2902.873c-1.117,0-2.042-0.884-2.083-2.012
				c-0.038-1.15,0.863-2.116,2.012-2.154l16.655-0.569c1.245-0.114,2.112,0.862,2.153,2.012c0.038,1.15-0.863,2.115-2.012,2.153
				l-16.655,0.569C2667.311,2902.873,2667.286,2902.873,2667.265,2902.873z M2722.603,2899.656c-0.952,0-1.812-0.656-2.028-1.627
				c-0.252-1.123,0.453-2.235,1.573-2.49l16.255-3.656c1.12-0.233,2.238,0.45,2.49,1.579c0.252,1.122-0.453,2.234-1.576,2.489
				l-16.253,3.656C2722.91,2899.64,2722.755,2899.656,2722.603,2899.656z M2532.993,2896.646c-0.111,0-0.225-0.011-0.339-0.027
				l-16.445-2.685c-1.134-0.184-1.904-1.258-1.719-2.392c0.184-1.134,1.229-1.882,2.391-1.719l16.446,2.685
				c1.134,0.184,1.904,1.258,1.719,2.392C2534.878,2895.919,2533.997,2896.646,2532.993,2896.646z M2478.179,2887.691
				c-0.111,0-0.225-0.011-0.34-0.027l-16.445-2.685c-1.134-0.185-1.904-1.258-1.719-2.392c0.185-1.134,1.234-1.898,2.392-1.719
				l16.445,2.685c1.134,0.184,1.904,1.258,1.72,2.392C2480.063,2886.964,2479.182,2887.691,2478.179,2887.691z M2776.792,2887.469
				c-0.952,0-1.812-0.656-2.029-1.627c-0.252-1.123,0.45-2.235,1.573-2.49l16.256-3.661c1.115-0.239,2.237,0.456,2.49,1.578
				c0.252,1.123-0.45,2.235-1.573,2.49l-16.255,3.661C2777.098,2887.452,2776.944,2887.469,2776.792,2887.469z M2423.363,2878.741
				c-0.111,0-0.225-0.011-0.339-0.027l-16.445-2.691c-1.136-0.184-1.904-1.258-1.719-2.392c0.19-1.128,1.266-1.882,2.392-1.719
				l16.445,2.69c1.136,0.185,1.904,1.258,1.72,2.392C2425.248,2878.014,2424.364,2878.741,2423.363,2878.741z M2830.977,2875.275
				c-0.952,0-1.812-0.656-2.028-1.627c-0.252-1.123,0.453-2.235,1.573-2.49l16.255-3.656c1.134-0.233,2.238,0.45,2.49,1.578
				c0.252,1.123-0.453,2.235-1.576,2.49l-16.253,3.656C2831.284,2875.259,2831.13,2875.275,2830.977,2875.275z M2368.549,2869.787
				c-0.111,0-0.225-0.011-0.339-0.027l-16.446-2.69c-1.136-0.184-1.904-1.259-1.719-2.392c0.187-1.134,1.272-1.876,2.391-1.719
				l16.446,2.69c1.136,0.185,1.903,1.259,1.719,2.392C2370.434,2869.06,2369.549,2869.787,2368.549,2869.787z M2885.166,2863.088
				c-0.952,0-1.812-0.656-2.029-1.627c-0.252-1.123,0.45-2.234,1.573-2.49l16.256-3.661c1.128-0.238,2.237,0.456,2.489,1.578
				s-0.45,2.235-1.573,2.49l-16.256,3.661C2885.472,2863.072,2885.318,2863.088,2885.166,2863.088z M2313.731,2860.832
				c-0.111,0-0.225-0.011-0.339-0.027l-16.442-2.685c-1.134-0.184-1.904-1.259-1.72-2.392c0.184-1.134,1.231-1.898,2.392-1.72
				l16.443,2.685c1.134,0.185,1.904,1.259,1.719,2.392C2315.615,2860.104,2314.734,2860.832,2313.731,2860.832z M2258.916,2851.876
				c-0.111,0-0.225-0.011-0.339-0.027l-16.443-2.685c-1.134-0.184-1.904-1.259-1.719-2.392c0.187-1.134,1.239-1.887,2.392-1.72
				l16.443,2.685c1.134,0.184,1.904,1.259,1.719,2.392C2260.801,2851.149,2259.919,2851.876,2258.916,2851.876z M2939.354,2850.895
				c-0.952,0-1.812-0.656-2.028-1.627c-0.252-1.123,0.453-2.234,1.573-2.489l16.258-3.656c1.102-0.233,2.238,0.45,2.487,1.578
				c0.252,1.123-0.453,2.234-1.573,2.49l-16.259,3.656C2939.661,2850.878,2939.507,2850.895,2939.354,2850.895z M2204.101,2842.921
				c-0.111,0-0.225-0.011-0.339-0.027l-16.443-2.685c-1.134-0.185-1.904-1.259-1.719-2.392c0.187-1.134,1.247-1.904,2.392-1.719
				l16.443,2.685c1.134,0.184,1.903,1.259,1.719,2.392C2205.985,2842.194,2205.104,2842.921,2204.101,2842.921z M2993.541,2838.707
				c-0.952,0-1.812-0.656-2.029-1.627c-0.252-1.123,0.453-2.235,1.576-2.49l16.253-3.656c1.123-0.244,2.24,0.456,2.49,1.579
				c0.252,1.123-0.453,2.235-1.573,2.49l-16.258,3.656C2993.847,2838.69,2993.692,2838.707,2993.541,2838.707z M3047.729,2826.513
				c-0.952,0-1.812-0.656-2.029-1.627c-0.252-1.123,0.453-2.235,1.573-2.49l16.258-3.656c1.096-0.233,2.238,0.45,2.487,1.579
				c0.252,1.123-0.453,2.235-1.573,2.49l-16.256,3.656C3048.035,2826.497,3047.881,2826.513,3047.729,2826.513z M2183.767,2802.323
				c-1.088,0-2.002-0.846-2.075-1.947c-0.353-5.315-0.705-10.881-1.041-16.657c-0.065-1.145,0.811-2.132,1.958-2.197
				c1.185-0.174,2.134,0.808,2.202,1.958c0.336,5.766,0.684,11.32,1.036,16.625c0.076,1.144-0.792,2.137-1.939,2.213
				C2183.861,2802.323,2183.813,2802.323,2183.767,2802.323z M3085.133,2801.26c-1.112,0-2.034-0.879-2.077-2.002
				c-0.217-5.538-0.497-11.075-0.833-16.597c-0.068-1.144,0.805-2.131,1.952-2.202c1.083-0.136,2.135,0.803,2.208,1.952
				c0.336,5.544,0.615,11.114,0.833,16.684c0.046,1.15-0.849,2.115-1.999,2.164C3085.19,2801.26,3085.163,2801.26,3085.133,2801.26z
				 M2180.853,2746.835c-1.112,0-2.037-0.884-2.077-2.007c-0.208-5.489-0.39-11.059-0.542-16.678
				c-0.03-1.15,0.876-2.104,2.025-2.137c1.123,0.13,2.107,0.873,2.14,2.029c0.152,5.597,0.333,11.157,0.536,16.635
				c0.044,1.15-0.851,2.115-2.001,2.158C2180.935,2746.835,2180.881,2746.835,2180.853,2746.835z M3081.068,2745.869
				c-1.052,0-1.956-0.797-2.07-1.866c-0.583-5.565-1.212-11.081-1.877-16.527c-0.141-1.145,0.673-2.181,1.814-2.322
				c1.139-0.152,2.18,0.673,2.318,1.812c0.67,5.478,1.299,11.016,1.888,16.603c0.119,1.144-0.71,2.169-1.855,2.289
				C3081.214,2745.864,3081.141,2745.869,3081.068,2745.869z M2179.785,2691.293h-0.003c-1.15,0-2.083-0.933-2.08-2.088
				c0.008-5.587,0.057-11.157,0.149-16.69c0.022-1.15,0.773-2.186,2.118-2.051c1.15,0.022,2.066,0.966,2.047,2.116
				c-0.092,5.511-0.141,11.071-0.149,16.635C2181.865,2690.36,2180.935,2691.293,2179.785,2691.293z M3073.761,2690.794
				c-1.006,0-1.893-0.732-2.055-1.757c-0.884-5.587-1.795-11.065-2.726-16.413c-0.195-1.134,0.564-2.213,1.698-2.408
				c1.117-0.2,2.213,0.564,2.408,1.692c0.93,5.37,1.847,10.869,2.737,16.478c0.179,1.134-0.596,2.202-1.733,2.381
				C3073.979,2690.783,3073.87,2690.794,3073.761,2690.794z M3063.781,2636.125c-0.966,0-1.833-0.678-2.037-1.66
				c-1.175-5.695-2.338-11.13-3.469-16.283c-0.247-1.123,0.464-2.235,1.587-2.479c1.125-0.25,2.234,0.461,2.481,1.589
				c1.136,5.164,2.3,10.62,3.479,16.327c0.233,1.128-0.49,2.229-1.619,2.462C3064.063,2636.109,3063.922,2636.125,3063.781,2636.125
				z M2181.458,2635.778c-0.046,0-0.092,0-0.138-0.005c-1.147-0.076-2.018-1.063-1.942-2.213c0.369-5.684,0.811-11.255,1.326-16.673
				c0.108-1.145,1.115-1.969,2.273-1.872c1.144,0.109,1.985,1.123,1.877,2.268c-0.516,5.38-0.952,10.907-1.321,16.548
				C2183.463,2634.932,2182.546,2635.778,2181.458,2635.778z M2203.135,2596.763c-1.107,0-2.026-0.873-2.078-1.985
				c-0.054-1.15,0.835-2.126,1.986-2.181l16.654-0.765c1.104-0.016,2.123,0.835,2.175,1.985c0.054,1.15-0.835,2.127-1.985,2.181
				l-16.655,0.765C2203.2,2596.763,2203.168,2596.763,2203.135,2596.763z M2258.647,2594.252c-1.106,0-2.029-0.874-2.077-1.99
				c-0.052-1.15,0.837-2.121,1.988-2.175l16.657-0.733c1.02-0.005,2.121,0.841,2.17,1.991c0.052,1.15-0.84,2.121-1.991,2.175
				l-16.652,0.732C2258.712,2594.252,2258.68,2594.252,2258.647,2594.252z M2314.159,2591.849c-1.109,0-2.031-0.879-2.077-1.996
				c-0.049-1.15,0.844-2.121,1.993-2.17l16.655-0.699c1.152-0.017,2.118,0.846,2.167,1.996c0.048,1.15-0.844,2.121-1.993,2.17
				l-16.655,0.699C2314.219,2591.849,2314.189,2591.849,2314.159,2591.849z M2369.679,2589.555c-1.109,0-2.034-0.879-2.077-1.996
				c-0.049-1.15,0.846-2.121,1.996-2.169l16.66-0.667c1.071,0.044,2.118,0.852,2.161,2.002c0.046,1.15-0.849,2.115-1.999,2.164
				l-16.655,0.668C2369.739,2589.555,2369.709,2589.555,2369.679,2589.555z M2425.199,2587.375c-1.115,0-2.04-0.879-2.08-2.002
				c-0.046-1.15,0.852-2.121,2.001-2.164l16.655-0.635c1.296,0.065,2.118,0.852,2.159,2.002c0.046,1.15-0.852,2.121-2.002,2.164
				l-16.654,0.635C2425.251,2587.375,2425.224,2587.375,2425.199,2587.375z M2480.719,2585.308c-1.115,0-2.037-0.884-2.077-2.007
				c-0.043-1.15,0.854-2.115,2.004-2.159l16.663-0.596c1.142,0.071,2.115,0.857,2.156,2.012c0.038,1.15-0.86,2.11-2.01,2.153
				l-16.657,0.597C2480.771,2585.308,2480.747,2585.308,2480.719,2585.308z M2536.24,2583.382c-1.121,0-2.042-0.884-2.083-2.012
				c-0.038-1.15,0.863-2.115,2.012-2.153l16.657-0.553c1.25-0.049,2.113,0.868,2.151,2.018c0.036,1.15-0.865,2.11-2.015,2.148
				l-16.651,0.553C2536.286,2583.382,2536.261,2583.382,2536.24,2583.382z M3051.325,2581.967c-0.93,0-1.776-0.629-2.015-1.573
				l-0.122-0.472c-4.157-0.358-8.605-0.689-13.346-0.992c-1.15-0.071-2.021-1.063-1.944-2.213c0.073-1.144,1.147-2.094,2.21-1.942
				c4.988,0.32,9.649,0.667,13.98,1.042c1.424,0.114,2.609,1.047,2.94,2.316l0.317,1.242c0.285,1.112-0.39,2.246-1.505,2.527
				C3051.667,2581.945,3051.496,2581.967,3051.325,2581.967z M3049.744,2579.971h0.052H3049.744z M2591.754,2581.593
				c-1.122,0-2.047-0.89-2.083-2.018c-0.035-1.15,0.868-2.11,2.018-2.148l16.66-0.505c1.266,0.103,2.11,0.874,2.145,2.023
				c0.033,1.15-0.87,2.11-2.02,2.142l-16.655,0.505C2591.798,2581.593,2591.776,2581.593,2591.754,2581.593z M2647.272,2579.971
				c-1.125,0-2.05-0.895-2.083-2.029c-0.03-1.15,0.876-2.104,2.026-2.137l16.66-0.45c1.125,0.043,2.107,0.879,2.136,2.029
				c0.03,1.15-0.879,2.104-2.028,2.137l-16.654,0.45H2647.272z M2702.797,2578.539c-1.128,0-2.056-0.9-2.083-2.034
				c-0.027-1.15,0.882-2.105,2.031-2.132l16.665-0.385c0.016,0,0.033,0,0.033,0c1.144,0,2.072,0.9,2.096,2.04
				c0.024,1.15-0.887,2.099-2.037,2.126l-16.654,0.385C2702.83,2578.539,2702.813,2578.539,2702.797,2578.539z M2758.328,2577.351
				c-1.134,0-2.061-0.906-2.083-2.045c-0.022-1.15,0.893-2.099,2.042-2.121l16.668-0.304c1.345,0.147,2.099,0.9,2.118,2.051
				c0.02,1.15-0.898,2.093-2.047,2.115l-16.657,0.304C2758.355,2577.351,2758.342,2577.351,2758.328,2577.351z M2997.139,2577.134
				c0,0-0.043,0-0.065,0c-5.329-0.167-10.878-0.325-16.641-0.466c-1.15-0.027-2.058-0.982-2.031-2.132
				c0.03-1.15,0.917-2.11,2.135-2.034c5.774,0.141,11.328,0.298,16.667,0.466c1.15,0.038,2.053,0.998,2.018,2.148
				C2999.187,2576.245,2998.26,2577.134,2997.139,2577.134z M2813.862,2576.445c-1.139,0-2.067-0.917-2.083-2.056
				c-0.017-1.15,0.906-2.094,2.056-2.11c5.638-0.076,11.195-0.147,16.668-0.2c0,0,0.016,0,0.021,0c1.141,0,2.072,0.917,2.083,2.061
				c0.011,1.15-0.911,2.094-2.061,2.104c-5.47,0.054-11.024,0.125-16.657,0.201H2813.862z M2941.608,2576.028h-0.022
				c-5.413-0.054-10.965-0.098-16.652-0.13c-1.153-0.006-2.077-0.944-2.072-2.094c0.005-1.15,0.938-2.072,2.083-2.072h0.008
				c5.701,0.032,11.258,0.076,16.676,0.13c1.15,0.011,2.072,0.955,2.061,2.104C2943.68,2575.111,2942.75,2576.028,2941.608,2576.028
				z M2869.404,2575.908c-1.145,0-2.078-0.922-2.083-2.072c-0.006-1.15,0.919-2.088,2.072-2.094
				c5.66-0.032,11.217-0.054,16.668-0.065h0.005c1.147,0,2.08,0.927,2.083,2.077c0.003,1.15-0.928,2.088-2.078,2.088
				c-5.451,0.011-11.002,0.033-16.657,0.065H2869.404z"/>
			
				<linearGradient id="SVGID_00000121269578717408861400000015718767031914512552_" gradientUnits="userSpaceOnUse" x1="10256.2686" y1="2255.5491" x2="10203.3701" y2="2674.6675" gradientTransform="matrix(0.9995 -0.0343 0.0343 0.9995 -7657.668 670.9679)">
				<stop  offset="0" style="stop-color:#E1473D"/>
				<stop  offset="1" style="stop-color:#E9605A"/>
			</linearGradient>
			<path style="fill:url(#SVGID_00000121269578717408861400000015718767031914512552_);" d="M2709.155,2988.308l-117.509,4.032
				c-15.399,0.528-28.76-10.484-31.11-25.64l-17.457-112.61c-2.781-17.937,10.807-34.269,29.033-34.895l141.168-4.844
				c17.856-0.613,32.392,14.146,31.421,31.902l-6.201,113.422C2737.643,2975.342,2724.909,2987.767,2709.155,2988.308z"/>
			<defs>
				<filter id="Adobe_OpacityMaskFilter" filterUnits="userSpaceOnUse" x="2567.31" y="2835.592" width="153.767" height="135.497">
					<feFlood  style="flood-color:white;flood-opacity:1" result="back"/>
					<feBlend  in="SourceGraphic" in2="back" mode="normal"/>
				</filter>
			</defs>
			
				<mask maskUnits="userSpaceOnUse" x="2567.31" y="2835.592" width="153.767" height="135.497" id="SVGID_00000152244079898467099400000016354443855385226161_">
				<g style="filter:url(#Adobe_OpacityMaskFilter);">
					<defs>
						
							<filter id="Adobe_OpacityMaskFilter_00000143588762078987544480000013896946146064244864_" filterUnits="userSpaceOnUse" x="2567.31" y="2835.592" width="153.767" height="135.497">
							<feFlood  style="flood-color:white;flood-opacity:1" result="back"/>
							<feBlend  in="SourceGraphic" in2="back" mode="normal"/>
						</filter>
					</defs>
					
						<mask maskUnits="userSpaceOnUse" x="2567.31" y="2835.592" width="153.767" height="135.497" id="SVGID_00000152244079898467099400000016354443855385226161_">
						<g style="filter:url(#Adobe_OpacityMaskFilter_00000143588762078987544480000013896946146064244864_);">
						</g>
					</mask>
					
						<linearGradient id="SVGID_00000071560989413714832560000006159092081174089884_" gradientUnits="userSpaceOnUse" x1="10142.8965" y1="2584.3823" x2="10296.7129" y2="2584.3823" gradientTransform="matrix(0.9995 -0.0343 0.0343 0.9995 -7657.668 670.9679)">
						<stop  offset="0" style="stop-color:#FFFFFF"/>
						<stop  offset="1" style="stop-color:#000000"/>
					</linearGradient>
					
						<path style="mask:url(#SVGID_00000152244079898467099400000016354443855385226161_);fill:url(#SVGID_00000071560989413714832560000006159092081174089884_);" d="
						M2693.988,2968.007l-89.437,3.068c-11.721,0.402-21.891-7.979-23.679-19.514l-13.287-85.708
						c-2.115-13.653,8.226-26.082,22.098-26.559l107.445-3.687c13.589-0.466,24.653,10.767,23.914,24.283l-4.72,86.326
						C2715.669,2958.138,2705.977,2967.594,2693.988,2968.007z"/>
				</g>
			</mask>
			
				<linearGradient id="SVGID_00000151508481454417387210000015878164162401568392_" gradientUnits="userSpaceOnUse" x1="3525.8398" y1="660.2738" x2="2474.6074" y2="3328.0271">
				<stop  offset="0" style="stop-color:#FF928E"/>
				<stop  offset="1" style="stop-color:#FE7062"/>
			</linearGradient>
			<path style="fill:url(#SVGID_00000151508481454417387210000015878164162401568392_);" d="M2693.988,2968.007l-89.437,3.068
				c-11.721,0.402-21.891-7.979-23.679-19.514l-13.287-85.708c-2.115-13.653,8.226-26.082,22.098-26.559l107.445-3.687
				c13.589-0.466,24.653,10.767,23.914,24.283l-4.72,86.326C2715.669,2958.138,2705.977,2967.594,2693.988,2968.007z"/>
		</g>
	</g>
</g>
</svg>
