<svg width="48" height="48" viewBox="0 0 48 48" fill="none" xmlns="http://www.w3.org/2000/svg">
<path d="M24 0C10.7664 0 0.000244141 10.7664 0.000244141 24C0.000244141 37.2338 10.7664 48 24 48C37.2338 48 47.9998 37.2338 47.9998 24C47.9998 10.7664 37.2338 0 24 0ZM24.1534 7.542C29.0825 7.542 33.0787 12.2604 33.0787 18.083C33.0787 23.9047 29.0825 28.6248 24.1534 28.6248C19.2242 28.6248 15.2285 23.9047 15.2285 18.083C15.2285 12.2604 19.2242 7.542 24.1534 7.542ZM24 45.0864C18.0739 45.0864 12.7109 42.629 8.87617 38.6796C8.33233 38.1192 8.16001 37.2936 8.43457 36.5628C9.74737 33.0694 12.2069 30.1399 15.3506 28.2202C16.0294 27.8054 16.8984 27.8858 17.489 28.4189C19.3385 30.0888 21.6449 31.0862 24.1531 31.0862C26.6129 31.0862 28.8787 30.126 30.7094 28.5137C31.3066 27.9878 32.1802 27.9187 32.8531 28.343C35.9004 30.264 38.2814 33.1442 39.5652 36.5638C39.8398 37.295 39.6672 38.1194 39.1231 38.6798C35.2889 42.629 29.9258 45.0864 24 45.0864Z" fill="black"/>
</svg>
